<?xml version="1.0" encoding="utf-8"?>
<!-- Generator: Adobe Illustrator 17.0.0, SVG Export Plug-In . SVG Version: 6.00 Build 0)  -->
<!DOCTYPE svg PUBLIC "-//W3C//DTD SVG 1.1//EN" "http://www.w3.org/Graphics/SVG/1.1/DTD/svg11.dtd">
<svg version="1.1" id="Capa_1" xmlns="http://www.w3.org/2000/svg" xmlns:xlink="http://www.w3.org/1999/xlink" x="0px" y="0px"
	 width="29.615px" height="21.191px" viewBox="0 0 29.615 21.191" enable-background="new 0 0 29.615 21.191" xml:space="preserve">
<g>
	<g>
		
			<rect x="-2244.531" y="-772.079" transform="matrix(-0.7071 0.7071 -0.7071 -0.7071 -3956.9922 95.2739)" fill="#F0EFEF" width="492.606" height="0.394"/>
		
			<rect x="-2236.656" y="-772.079" transform="matrix(-0.7071 0.7071 -0.7071 -0.7071 -3943.5486 89.7054)" fill="#F0EFEF" width="492.606" height="0.394"/>
		
			<rect x="-2228.782" y="-772.079" transform="matrix(-0.7071 0.7071 -0.7071 -0.7071 -3930.1079 84.1353)" fill="#F0EFEF" width="492.607" height="0.394"/>
		
			<rect x="-2220.907" y="-772.079" transform="matrix(-0.7071 0.7071 -0.7071 -0.7071 -3916.6633 78.5692)" fill="#F0EFEF" width="492.606" height="0.394"/>
		
			<rect x="-2213.032" y="-772.079" transform="matrix(-0.7071 0.7071 -0.7071 -0.7071 -3903.22 73.0007)" fill="#F0EFEF" width="492.606" height="0.394"/>
		
			<rect x="-2205.157" y="-772.079" transform="matrix(-0.7071 0.7071 -0.7071 -0.7071 -3889.7764 67.4323)" fill="#F0EFEF" width="492.606" height="0.394"/>
		
			<rect x="-2197.281" y="-772.079" transform="matrix(-0.7071 0.7071 -0.7071 -0.7071 -3876.3318 61.8666)" fill="#F0EFEF" width="492.605" height="0.393"/>
		
			<rect x="-2189.408" y="-772.079" transform="matrix(-0.7071 0.7071 -0.7071 -0.7071 -3862.8911 56.2961)" fill="#F0EFEF" width="492.606" height="0.394"/>
		
			<rect x="-2181.533" y="-772.079" transform="matrix(-0.7071 0.7071 -0.7071 -0.7071 -3849.4478 50.7276)" fill="#F0EFEF" width="492.606" height="0.394"/>
		
			<rect x="-2173.658" y="-772.079" transform="matrix(-0.7071 0.7071 -0.7071 -0.7071 -3836.0051 45.1595)" fill="#F0EFEF" width="492.606" height="0.394"/>
		
			<rect x="-2165.784" y="-772.079" transform="matrix(-0.7071 0.7071 -0.7071 -0.7071 -3822.5635 39.5886)" fill="#F0EFEF" width="492.607" height="0.394"/>
		
			<rect x="-2157.909" y="-772.079" transform="matrix(-0.7071 0.7071 -0.7071 -0.7071 -3809.1189 34.0229)" fill="#F0EFEF" width="492.606" height="0.394"/>
		
			<rect x="-2150.034" y="-772.079" transform="matrix(-0.7071 0.7071 -0.7071 -0.7071 -3795.6755 28.4544)" fill="#F0EFEF" width="492.606" height="0.394"/>
		
			<rect x="-2142.159" y="-772.079" transform="matrix(-0.7071 0.7071 -0.7071 -0.7071 -3782.2319 22.886)" fill="#F0EFEF" width="492.606" height="0.394"/>
		
			<rect x="-2134.284" y="-772.079" transform="matrix(-0.7071 0.7071 -0.7071 -0.7071 -3768.7883 17.3205)" fill="#F0EFEF" width="492.605" height="0.394"/>
		
			<rect x="-2126.41" y="-772.079" transform="matrix(-0.7071 0.7071 -0.7071 -0.7071 -3755.3467 11.7497)" fill="#F0EFEF" width="492.606" height="0.394"/>
		
			<rect x="-2118.535" y="-772.079" transform="matrix(-0.7071 0.7071 -0.7071 -0.7071 -3741.9033 6.1813)" fill="#F0EFEF" width="492.606" height="0.394"/>
		
			<rect x="-2110.66" y="-772.079" transform="matrix(-0.7071 0.7071 -0.7071 -0.7071 -3728.4607 0.6132)" fill="#F0EFEF" width="492.606" height="0.394"/>
		
			<rect x="-2102.786" y="-772.079" transform="matrix(-0.7071 0.7071 -0.7071 -0.7071 -3715.0181 -4.955)" fill="#F0EFEF" width="492.606" height="0.394"/>
		
			<rect x="-2094.911" y="-772.079" transform="matrix(-0.7071 0.7071 -0.7071 -0.7071 -3701.5745 -10.5234)" fill="#F0EFEF" width="492.606" height="0.394"/>
		
			<rect x="-2087.036" y="-772.079" transform="matrix(-0.7071 0.7071 -0.7071 -0.7071 -3688.1311 -16.0919)" fill="#F0EFEF" width="492.606" height="0.394"/>
		
			<rect x="-2079.16" y="-772.079" transform="matrix(-0.7071 0.7071 -0.7071 -0.7071 -3674.6865 -21.6577)" fill="#F0EFEF" width="492.605" height="0.393"/>
		
			<rect x="-2071.287" y="-772.079" transform="matrix(-0.7071 0.7071 -0.7071 -0.7071 -3661.2458 -27.2281)" fill="#F0EFEF" width="492.606" height="0.394"/>
		
			<rect x="-2063.412" y="-772.079" transform="matrix(-0.7071 0.7071 -0.7071 -0.7071 -3647.8022 -32.7966)" fill="#F0EFEF" width="492.606" height="0.394"/>
		
			<rect x="-2055.537" y="-772.079" transform="matrix(-0.7071 0.7071 -0.7071 -0.7071 -3634.3589 -38.365)" fill="#F0EFEF" width="492.606" height="0.394"/>
		
			<rect x="-2047.663" y="-772.079" transform="matrix(-0.7071 0.7071 -0.7071 -0.7071 -3620.918 -43.9354)" fill="#F0EFEF" width="492.607" height="0.394"/>
		
			<rect x="-2039.788" y="-772.079" transform="matrix(-0.7071 0.7071 -0.7071 -0.7071 -3607.4736 -49.5013)" fill="#F0EFEF" width="492.606" height="0.394"/>
		
			<rect x="-2031.913" y="-772.079" transform="matrix(-0.7071 0.7071 -0.7071 -0.7071 -3594.03 -55.0697)" fill="#F0EFEF" width="492.606" height="0.394"/>
		
			<rect x="-2024.038" y="-772.079" transform="matrix(-0.7071 0.7071 -0.7071 -0.7071 -3580.5867 -60.6382)" fill="#F0EFEF" width="492.606" height="0.394"/>
		
			<rect x="-2016.163" y="-772.079" transform="matrix(-0.7071 0.7071 -0.7071 -0.7071 -3567.1431 -66.2037)" fill="#F0EFEF" width="492.605" height="0.394"/>
		
			<rect x="-2008.289" y="-772.079" transform="matrix(-0.7071 0.7071 -0.7071 -0.7071 -3553.7014 -71.7744)" fill="#F0EFEF" width="492.606" height="0.394"/>
		
			<rect x="-2000.414" y="-772.079" transform="matrix(-0.7071 0.7071 -0.7071 -0.7071 -3540.2578 -77.3429)" fill="#F0EFEF" width="492.606" height="0.394"/>
		
			<rect x="-1992.539" y="-772.079" transform="matrix(-0.7071 0.7071 -0.7071 -0.7071 -3526.8152 -82.911)" fill="#F0EFEF" width="492.606" height="0.394"/>
		
			<rect x="-1984.665" y="-772.079" transform="matrix(-0.7071 0.7071 -0.7071 -0.7071 -3513.3733 -88.4812)" fill="#F0EFEF" width="492.607" height="0.394"/>
		
			<rect x="-1976.79" y="-772.079" transform="matrix(-0.7071 0.7071 -0.7071 -0.7071 -3499.9292 -94.0476)" fill="#F0EFEF" width="492.606" height="0.394"/>
		
			<rect x="-1968.915" y="-772.079" transform="matrix(-0.7071 0.7071 -0.7071 -0.7071 -3486.4856 -99.6161)" fill="#F0EFEF" width="492.606" height="0.394"/>
		
			<rect x="-1961.039" y="-772.079" transform="matrix(-0.7071 0.7071 -0.7071 -0.7071 -3473.0413 -105.182)" fill="#F0EFEF" width="492.605" height="0.393"/>
		
			<rect x="-1953.165" y="-772.079" transform="matrix(-0.7071 0.7071 -0.7071 -0.7071 -3459.5986 -110.7501)" fill="#F0EFEF" width="492.605" height="0.394"/>
		
			<rect x="-1945.291" y="-772.079" transform="matrix(-0.7071 0.7071 -0.7071 -0.7071 -3446.157 -116.3207)" fill="#F0EFEF" width="492.606" height="0.394"/>
		
			<rect x="-1937.416" y="-772.079" transform="matrix(-0.7071 0.7071 -0.7071 -0.7071 -3432.7134 -121.8892)" fill="#F0EFEF" width="492.606" height="0.394"/>
		
			<rect x="-1929.542" y="-772.079" transform="matrix(-0.7071 0.7071 -0.7071 -0.7071 -3419.2725 -127.4595)" fill="#F0EFEF" width="492.607" height="0.394"/>
		
			<rect x="-1921.667" y="-772.079" transform="matrix(-0.7071 0.7071 -0.7071 -0.7071 -3405.8281 -133.0254)" fill="#F0EFEF" width="492.606" height="0.394"/>
		
			<rect x="-1913.792" y="-772.079" transform="matrix(-0.7071 0.7071 -0.7071 -0.7071 -3392.3848 -138.5939)" fill="#F0EFEF" width="492.606" height="0.394"/>
	</g>
	<g>
		
			<rect x="-1904.531" y="-772.079" transform="matrix(-0.7071 0.7071 -0.7071 -0.7071 -3376.5757 -145.1422)" fill="#F0EFEF" width="492.606" height="0.394"/>
		
			<rect x="-1896.656" y="-772.079" transform="matrix(-0.7071 0.7071 -0.7071 -0.7071 -3363.1321 -150.7107)" fill="#F0EFEF" width="492.606" height="0.394"/>
		
			<rect x="-1888.782" y="-772.079" transform="matrix(-0.7071 0.7071 -0.7071 -0.7071 -3349.6912 -156.2805)" fill="#F0EFEF" width="492.607" height="0.394"/>
		
			<rect x="-1880.907" y="-772.079" transform="matrix(-0.7071 0.7071 -0.7071 -0.7071 -3336.2468 -161.8469)" fill="#F0EFEF" width="492.606" height="0.394"/>
		
			<rect x="-1873.032" y="-772.079" transform="matrix(-0.7071 0.7071 -0.7071 -0.7071 -3322.8035 -167.4154)" fill="#F0EFEF" width="492.606" height="0.394"/>
		
			<rect x="-1865.157" y="-772.079" transform="matrix(-0.7071 0.7071 -0.7071 -0.7071 -3309.3599 -172.9839)" fill="#F0EFEF" width="492.606" height="0.394"/>
		
			<rect x="-1857.281" y="-772.079" transform="matrix(-0.7071 0.7071 -0.7071 -0.7071 -3295.9155 -178.5499)" fill="#F0EFEF" width="492.605" height="0.393"/>
		
			<rect x="-1849.408" y="-772.079" transform="matrix(-0.7071 0.7071 -0.7071 -0.7071 -3282.4746 -184.1201)" fill="#F0EFEF" width="492.606" height="0.394"/>
		
			<rect x="-1841.533" y="-772.079" transform="matrix(-0.7071 0.7071 -0.7071 -0.7071 -3269.0312 -189.6885)" fill="#F0EFEF" width="492.606" height="0.394"/>
		
			<rect x="-1833.658" y="-772.079" transform="matrix(-0.7071 0.7071 -0.7071 -0.7071 -3255.5886 -195.2567)" fill="#F0EFEF" width="492.606" height="0.394"/>
		
			<rect x="-1825.784" y="-772.079" transform="matrix(-0.7071 0.7071 -0.7071 -0.7071 -3242.1467 -200.8272)" fill="#F0EFEF" width="492.607" height="0.394"/>
		
			<rect x="-1817.909" y="-772.079" transform="matrix(-0.7071 0.7071 -0.7071 -0.7071 -3228.7024 -206.3932)" fill="#F0EFEF" width="492.606" height="0.394"/>
		
			<rect x="-1810.034" y="-772.079" transform="matrix(-0.7071 0.7071 -0.7071 -0.7071 -3215.259 -211.9617)" fill="#F0EFEF" width="492.606" height="0.394"/>
		
			<rect x="-1802.159" y="-772.079" transform="matrix(-0.7071 0.7071 -0.7071 -0.7071 -3201.8154 -217.5302)" fill="#F0EFEF" width="492.606" height="0.394"/>
		
			<rect x="-1794.284" y="-772.079" transform="matrix(-0.7071 0.7071 -0.7071 -0.7071 -3188.3721 -223.0959)" fill="#F0EFEF" width="492.605" height="0.394"/>
		
			<rect x="-1786.41" y="-772.079" transform="matrix(-0.7071 0.7071 -0.7071 -0.7071 -3174.9302 -228.6664)" fill="#F0EFEF" width="492.606" height="0.394"/>
		
			<rect x="-1778.535" y="-772.079" transform="matrix(-0.7071 0.7071 -0.7071 -0.7071 -3161.4868 -234.2349)" fill="#F0EFEF" width="492.606" height="0.394"/>
		
			<rect x="-1770.66" y="-772.079" transform="matrix(-0.7071 0.7071 -0.7071 -0.7071 -3148.0442 -239.803)" fill="#F0EFEF" width="492.606" height="0.394"/>
		
			<rect x="-1762.786" y="-772.079" transform="matrix(-0.7071 0.7071 -0.7071 -0.7071 -3134.6016 -245.3711)" fill="#F0EFEF" width="492.606" height="0.394"/>
		
			<rect x="-1754.911" y="-772.079" transform="matrix(-0.7071 0.7071 -0.7071 -0.7071 -3121.158 -250.9396)" fill="#F0EFEF" width="492.606" height="0.394"/>
		
			<rect x="-1747.036" y="-772.079" transform="matrix(-0.7071 0.7071 -0.7071 -0.7071 -3107.7146 -256.508)" fill="#F0EFEF" width="492.606" height="0.394"/>
		
			<rect x="-1739.16" y="-772.079" transform="matrix(-0.7071 0.7071 -0.7071 -0.7071 -3094.2703 -262.0742)" fill="#F0EFEF" width="492.605" height="0.393"/>
		
			<rect x="-1731.287" y="-772.079" transform="matrix(-0.7071 0.7071 -0.7071 -0.7071 -3080.8293 -267.6443)" fill="#F0EFEF" width="492.606" height="0.394"/>
		
			<rect x="-1723.412" y="-772.079" transform="matrix(-0.7071 0.7071 -0.7071 -0.7071 -3067.3857 -273.2127)" fill="#F0EFEF" width="492.606" height="0.394"/>
		
			<rect x="-1715.537" y="-772.079" transform="matrix(-0.7071 0.7071 -0.7071 -0.7071 -3053.9424 -278.7812)" fill="#F0EFEF" width="492.606" height="0.394"/>
		
			<rect x="-1707.663" y="-772.079" transform="matrix(-0.7071 0.7071 -0.7071 -0.7071 -3040.5012 -284.3512)" fill="#F0EFEF" width="492.607" height="0.394"/>
		
			<rect x="-1699.788" y="-772.079" transform="matrix(-0.7071 0.7071 -0.7071 -0.7071 -3027.0571 -289.9174)" fill="#F0EFEF" width="492.606" height="0.394"/>
		
			<rect x="-1691.913" y="-772.079" transform="matrix(-0.7071 0.7071 -0.7071 -0.7071 -3013.6135 -295.4859)" fill="#F0EFEF" width="492.606" height="0.394"/>
		
			<rect x="-1684.038" y="-772.079" transform="matrix(-0.7071 0.7071 -0.7071 -0.7071 -3000.1702 -301.0543)" fill="#F0EFEF" width="492.606" height="0.394"/>
		
			<rect x="-1676.163" y="-772.079" transform="matrix(-0.7071 0.7071 -0.7071 -0.7071 -2986.7268 -306.6202)" fill="#F0EFEF" width="492.605" height="0.394"/>
		
			<rect x="-1668.289" y="-772.079" transform="matrix(-0.7071 0.7071 -0.7071 -0.7071 -2973.2849 -312.1906)" fill="#F0EFEF" width="492.606" height="0.394"/>
		
			<rect x="-1660.414" y="-772.079" transform="matrix(-0.7071 0.7071 -0.7071 -0.7071 -2959.8413 -317.759)" fill="#F0EFEF" width="492.606" height="0.394"/>
		
			<rect x="-1652.539" y="-772.079" transform="matrix(-0.7071 0.7071 -0.7071 -0.7071 -2946.3987 -323.3271)" fill="#F0EFEF" width="492.606" height="0.394"/>
		
			<rect x="-1644.665" y="-772.079" transform="matrix(-0.7071 0.7071 -0.7071 -0.7071 -2932.9565 -328.8971)" fill="#F0EFEF" width="492.607" height="0.394"/>
		
			<rect x="-1636.79" y="-772.079" transform="matrix(-0.7071 0.7071 -0.7071 -0.7071 -2919.5127 -334.4637)" fill="#F0EFEF" width="492.606" height="0.394"/>
		
			<rect x="-1628.915" y="-772.079" transform="matrix(-0.7071 0.7071 -0.7071 -0.7071 -2906.0691 -340.0322)" fill="#F0EFEF" width="492.606" height="0.394"/>
		
			<rect x="-1621.039" y="-772.079" transform="matrix(-0.7071 0.7071 -0.7071 -0.7071 -2892.625 -345.5985)" fill="#F0EFEF" width="492.605" height="0.393"/>
		
			<rect x="-1613.165" y="-772.079" transform="matrix(-0.7071 0.7071 -0.7071 -0.7071 -2879.1824 -351.1666)" fill="#F0EFEF" width="492.605" height="0.394"/>
		
			<rect x="-1605.291" y="-772.079" transform="matrix(-0.7071 0.7071 -0.7071 -0.7071 -2865.7405 -356.7369)" fill="#F0EFEF" width="492.606" height="0.394"/>
		
			<rect x="-1597.416" y="-772.079" transform="matrix(-0.7071 0.7071 -0.7071 -0.7071 -2852.2969 -362.3053)" fill="#F0EFEF" width="492.606" height="0.394"/>
		
			<rect x="-1589.542" y="-772.079" transform="matrix(-0.7071 0.7071 -0.7071 -0.7071 -2838.8557 -367.8752)" fill="#F0EFEF" width="492.607" height="0.394"/>
		
			<rect x="-1581.667" y="-772.079" transform="matrix(-0.7071 0.7071 -0.7071 -0.7071 -2825.4116 -373.4416)" fill="#F0EFEF" width="492.606" height="0.394"/>
		
			<rect x="-1573.792" y="-772.079" transform="matrix(-0.7071 0.7071 -0.7071 -0.7071 -2811.9683 -379.01)" fill="#F0EFEF" width="492.606" height="0.394"/>
	</g>
	<g>
		
			<rect x="-1564.531" y="-772.079" transform="matrix(-0.7071 0.7071 -0.7071 -0.7071 -2796.1592 -385.5583)" fill="#F0EFEF" width="492.606" height="0.394"/>
		
			<rect x="-1556.656" y="-772.079" transform="matrix(-0.7071 0.7071 -0.7071 -0.7071 -2782.7158 -391.1268)" fill="#F0EFEF" width="492.606" height="0.394"/>
		
			<rect x="-1548.782" y="-772.079" transform="matrix(-0.7071 0.7071 -0.7071 -0.7071 -2769.2744 -396.6964)" fill="#F0EFEF" width="492.607" height="0.394"/>
		
			<rect x="-1540.907" y="-772.079" transform="matrix(-0.7071 0.7071 -0.7071 -0.7071 -2755.8303 -402.2631)" fill="#F0EFEF" width="492.606" height="0.394"/>
		
			<rect x="-1533.032" y="-772.079" transform="matrix(-0.7071 0.7071 -0.7071 -0.7071 -2742.387 -407.8315)" fill="#F0EFEF" width="492.606" height="0.394"/>
		
			<rect x="-1525.157" y="-772.079" transform="matrix(-0.7071 0.7071 -0.7071 -0.7071 -2728.9434 -413.4)" fill="#F0EFEF" width="492.606" height="0.394"/>
		
			<rect x="-1517.281" y="-772.079" transform="matrix(-0.7071 0.7071 -0.7071 -0.7071 -2715.4995 -418.9664)" fill="#F0EFEF" width="492.605" height="0.393"/>
		
			<rect x="-1509.408" y="-772.079" transform="matrix(-0.7071 0.7071 -0.7071 -0.7071 -2702.0581 -424.5362)" fill="#F0EFEF" width="492.606" height="0.394"/>
		
			<rect x="-1501.533" y="-772.079" transform="matrix(-0.7071 0.7071 -0.7071 -0.7071 -2688.6147 -430.1047)" fill="#F0EFEF" width="492.606" height="0.394"/>
		
			<rect x="-1493.658" y="-772.079" transform="matrix(-0.7071 0.7071 -0.7071 -0.7071 -2675.1721 -435.6728)" fill="#F0EFEF" width="492.606" height="0.394"/>
		
			<rect x="-1485.784" y="-772.079" transform="matrix(-0.7071 0.7071 -0.7071 -0.7071 -2661.73 -441.243)" fill="#F0EFEF" width="492.607" height="0.394"/>
		
			<rect x="-1477.909" y="-772.079" transform="matrix(-0.7071 0.7071 -0.7071 -0.7071 -2648.2859 -446.8094)" fill="#F0EFEF" width="492.606" height="0.394"/>
		
			<rect x="-1470.034" y="-772.079" transform="matrix(-0.7071 0.7071 -0.7071 -0.7071 -2634.8425 -452.3778)" fill="#F0EFEF" width="492.606" height="0.394"/>
		
			<rect x="-1462.159" y="-772.079" transform="matrix(-0.7071 0.7071 -0.7071 -0.7071 -2621.3989 -457.9463)" fill="#F0EFEF" width="492.606" height="0.394"/>
		
			<rect x="-1454.284" y="-772.079" transform="matrix(-0.7071 0.7071 -0.7071 -0.7071 -2607.9561 -463.5124)" fill="#F0EFEF" width="492.605" height="0.394"/>
		
			<rect x="-1446.41" y="-772.079" transform="matrix(-0.7071 0.7071 -0.7071 -0.7071 -2594.5139 -469.0825)" fill="#F0EFEF" width="492.606" height="0.394"/>
		
			<rect x="-1438.535" y="-772.079" transform="matrix(-0.7071 0.7071 -0.7071 -0.7071 -2581.0703 -474.6509)" fill="#F0EFEF" width="492.606" height="0.394"/>
		
			<rect x="-1430.66" y="-772.079" transform="matrix(-0.7071 0.7071 -0.7071 -0.7071 -2567.6277 -480.2191)" fill="#F0EFEF" width="492.606" height="0.394"/>
		
			<rect x="-1422.786" y="-772.079" transform="matrix(-0.7071 0.7071 -0.7071 -0.7071 -2554.1851 -485.7872)" fill="#F0EFEF" width="492.606" height="0.394"/>
		
			<rect x="-1414.911" y="-772.079" transform="matrix(-0.7071 0.7071 -0.7071 -0.7071 -2540.7415 -491.3557)" fill="#F0EFEF" width="492.606" height="0.394"/>
		
			<rect x="-1407.036" y="-772.079" transform="matrix(-0.7071 0.7071 -0.7071 -0.7071 -2527.2981 -496.9241)" fill="#F0EFEF" width="492.606" height="0.394"/>
		
			<rect x="-1399.16" y="-772.079" transform="matrix(-0.7071 0.7071 -0.7071 -0.7071 -2513.8542 -502.4907)" fill="#F0EFEF" width="492.605" height="0.393"/>
		
			<rect x="-1391.287" y="-772.079" transform="matrix(-0.7071 0.7071 -0.7071 -0.7071 -2500.4128 -508.0604)" fill="#F0EFEF" width="492.606" height="0.394"/>
		
			<rect x="-1383.412" y="-772.079" transform="matrix(-0.7071 0.7071 -0.7071 -0.7071 -2486.9692 -513.6288)" fill="#F0EFEF" width="492.606" height="0.394"/>
		
			<rect x="-1375.537" y="-772.079" transform="matrix(-0.7071 0.7071 -0.7071 -0.7071 -2473.5259 -519.1973)" fill="#F0EFEF" width="492.606" height="0.394"/>
		
			<rect x="-1367.663" y="-772.079" transform="matrix(-0.7071 0.7071 -0.7071 -0.7071 -2460.0845 -524.767)" fill="#F0EFEF" width="492.607" height="0.394"/>
		
			<rect x="-1359.788" y="-772.079" transform="matrix(-0.7071 0.7071 -0.7071 -0.7071 -2446.6406 -530.3336)" fill="#F0EFEF" width="492.606" height="0.394"/>
		
			<rect x="-1351.913" y="-772.079" transform="matrix(-0.7071 0.7071 -0.7071 -0.7071 -2433.197 -535.902)" fill="#F0EFEF" width="492.606" height="0.394"/>
		
			<rect x="-1344.038" y="-772.079" transform="matrix(-0.7071 0.7071 -0.7071 -0.7071 -2419.7537 -541.4705)" fill="#F0EFEF" width="492.606" height="0.394"/>
		
			<rect x="-1336.163" y="-772.079" transform="matrix(-0.7071 0.7071 -0.7071 -0.7071 -2406.3108 -547.0367)" fill="#F0EFEF" width="492.605" height="0.394"/>
		
			<rect x="-1328.289" y="-772.079" transform="matrix(-0.7071 0.7071 -0.7071 -0.7071 -2392.8684 -552.6067)" fill="#F0EFEF" width="492.606" height="0.394"/>
		
			<rect x="-1320.414" y="-772.079" transform="matrix(-0.7071 0.7071 -0.7071 -0.7071 -2379.4248 -558.1752)" fill="#F0EFEF" width="492.606" height="0.394"/>
		
			<rect x="-1312.539" y="-772.079" transform="matrix(-0.7071 0.7071 -0.7071 -0.7071 -2365.9824 -563.7432)" fill="#F0EFEF" width="492.606" height="0.394"/>
		
			<rect x="-1304.665" y="-772.079" transform="matrix(-0.7071 0.7071 -0.7071 -0.7071 -2352.54 -569.3132)" fill="#F0EFEF" width="492.607" height="0.394"/>
		
			<rect x="-1296.79" y="-772.079" transform="matrix(-0.7071 0.7071 -0.7071 -0.7071 -2339.0962 -574.8798)" fill="#F0EFEF" width="492.606" height="0.394"/>
		
			<rect x="-1288.915" y="-772.079" transform="matrix(-0.7071 0.7071 -0.7071 -0.7071 -2325.6526 -580.4483)" fill="#F0EFEF" width="492.606" height="0.394"/>
		
			<rect x="-1281.039" y="-772.079" transform="matrix(-0.7071 0.7071 -0.7071 -0.7071 -2312.209 -586.015)" fill="#F0EFEF" width="492.605" height="0.393"/>
		
			<rect x="-1273.165" y="-772.079" transform="matrix(-0.7071 0.7071 -0.7071 -0.7071 -2298.7661 -591.5831)" fill="#F0EFEF" width="492.605" height="0.394"/>
		
			<rect x="-1265.291" y="-772.079" transform="matrix(-0.7071 0.7071 -0.7071 -0.7071 -2285.324 -597.153)" fill="#F0EFEF" width="492.606" height="0.394"/>
		
			<rect x="-1257.416" y="-772.079" transform="matrix(-0.7071 0.7071 -0.7071 -0.7071 -2271.8804 -602.7215)" fill="#F0EFEF" width="492.606" height="0.394"/>
		
			<rect x="-1249.542" y="-772.079" transform="matrix(-0.7071 0.7071 -0.7071 -0.7071 -2258.439 -608.291)" fill="#F0EFEF" width="492.607" height="0.394"/>
		
			<rect x="-1241.667" y="-772.079" transform="matrix(-0.7071 0.7071 -0.7071 -0.7071 -2244.9951 -613.8577)" fill="#F0EFEF" width="492.606" height="0.394"/>
		
			<rect x="-1233.792" y="-772.079" transform="matrix(-0.7071 0.7071 -0.7071 -0.7071 -2231.5518 -619.4261)" fill="#F0EFEF" width="492.606" height="0.394"/>
	</g>
	<g>
		
			<rect x="-1224.531" y="-772.079" transform="matrix(-0.7071 0.7071 -0.7071 -0.7071 -2215.7427 -625.9744)" fill="#F0EFEF" width="492.606" height="0.394"/>
		
			<rect x="-1216.656" y="-772.079" transform="matrix(-0.7071 0.7071 -0.7071 -0.7071 -2202.2993 -631.5429)" fill="#F0EFEF" width="492.606" height="0.394"/>
		
			<rect x="-1208.782" y="-772.079" transform="matrix(-0.7071 0.7071 -0.7071 -0.7071 -2188.8577 -637.1125)" fill="#F0EFEF" width="492.607" height="0.394"/>
		
			<rect x="-1200.907" y="-772.079" transform="matrix(-0.7071 0.7071 -0.7071 -0.7071 -2175.4138 -642.6792)" fill="#F0EFEF" width="492.606" height="0.394"/>
		
			<rect x="-1193.032" y="-772.079" transform="matrix(-0.7071 0.7071 -0.7071 -0.7071 -2161.9705 -648.2477)" fill="#F0EFEF" width="492.606" height="0.394"/>
		
			<rect x="-1185.157" y="-772.079" transform="matrix(-0.7071 0.7071 -0.7071 -0.7071 -2148.5269 -653.8161)" fill="#F0EFEF" width="492.606" height="0.394"/>
		
			<rect x="-1177.281" y="-772.079" transform="matrix(-0.7071 0.7071 -0.7071 -0.7071 -2135.0833 -659.3829)" fill="#F0EFEF" width="492.605" height="0.393"/>
		
			<rect x="-1169.408" y="-772.079" transform="matrix(-0.7071 0.7071 -0.7071 -0.7071 -2121.6416 -664.9523)" fill="#F0EFEF" width="492.606" height="0.394"/>
		
			<rect x="-1161.533" y="-772.079" transform="matrix(-0.7071 0.7071 -0.7071 -0.7071 -2108.1982 -670.5208)" fill="#F0EFEF" width="492.606" height="0.394"/>
		
			<rect x="-1153.658" y="-772.079" transform="matrix(-0.7071 0.7071 -0.7071 -0.7071 -2094.7556 -676.0889)" fill="#F0EFEF" width="492.606" height="0.394"/>
		
			<rect x="-1145.784" y="-772.079" transform="matrix(-0.7071 0.7071 -0.7071 -0.7071 -2081.313 -681.6588)" fill="#F0EFEF" width="492.607" height="0.394"/>
		
			<rect x="-1137.909" y="-772.079" transform="matrix(-0.7071 0.7071 -0.7071 -0.7071 -2067.8694 -687.2255)" fill="#F0EFEF" width="492.606" height="0.394"/>
		
			<rect x="-1130.034" y="-772.079" transform="matrix(-0.7071 0.7071 -0.7071 -0.7071 -2054.426 -692.7939)" fill="#F0EFEF" width="492.606" height="0.394"/>
		
			<rect x="-1122.159" y="-772.079" transform="matrix(-0.7071 0.7071 -0.7071 -0.7071 -2040.9825 -698.3624)" fill="#F0EFEF" width="492.606" height="0.394"/>
		
			<rect x="-1114.284" y="-772.079" transform="matrix(-0.7071 0.7071 -0.7071 -0.7071 -2027.5398 -703.9289)" fill="#F0EFEF" width="492.605" height="0.394"/>
		
			<rect x="-1106.41" y="-772.079" transform="matrix(-0.7071 0.7071 -0.7071 -0.7071 -2014.0974 -709.4986)" fill="#F0EFEF" width="492.606" height="0.394"/>
		
			<rect x="-1098.535" y="-772.079" transform="matrix(-0.7071 0.7071 -0.7071 -0.7071 -2000.6539 -715.0671)" fill="#F0EFEF" width="492.606" height="0.394"/>
		
			<rect x="-1090.66" y="-772.079" transform="matrix(-0.7071 0.7071 -0.7071 -0.7071 -1987.2113 -720.6352)" fill="#F0EFEF" width="492.606" height="0.394"/>
		
			<rect x="-1082.786" y="-772.079" transform="matrix(-0.7071 0.7071 -0.7071 -0.7071 -1973.7686 -726.2034)" fill="#F0EFEF" width="492.606" height="0.394"/>
		
			<rect x="-1074.911" y="-772.079" transform="matrix(-0.7071 0.7071 -0.7071 -0.7071 -1960.3251 -731.7718)" fill="#F0EFEF" width="492.606" height="0.394"/>
		
			<rect x="-1067.036" y="-772.079" transform="matrix(-0.7071 0.7071 -0.7071 -0.7071 -1946.8816 -737.3403)" fill="#F0EFEF" width="492.606" height="0.394"/>
		
			<rect x="-1059.16" y="-772.079" transform="matrix(-0.7071 0.7071 -0.7071 -0.7071 -1933.4381 -742.9072)" fill="#F0EFEF" width="492.605" height="0.393"/>
		
			<rect x="-1051.287" y="-772.079" transform="matrix(-0.7071 0.7071 -0.7071 -0.7071 -1919.9963 -748.4765)" fill="#F0EFEF" width="492.606" height="0.394"/>
		
			<rect x="-1043.412" y="-772.079" transform="matrix(-0.7071 0.7071 -0.7071 -0.7071 -1906.5529 -754.045)" fill="#F0EFEF" width="492.606" height="0.394"/>
		
			<rect x="-1035.537" y="-772.079" transform="matrix(-0.7071 0.7071 -0.7071 -0.7071 -1893.1094 -759.6135)" fill="#F0EFEF" width="492.606" height="0.394"/>
		
			<rect x="-1027.663" y="-772.079" transform="matrix(-0.7071 0.7071 -0.7071 -0.7071 -1879.6676 -765.1828)" fill="#F0EFEF" width="492.607" height="0.394"/>
		
			<rect x="-1019.788" y="-772.079" transform="matrix(-0.7071 0.7071 -0.7071 -0.7071 -1866.2241 -770.7497)" fill="#F0EFEF" width="492.606" height="0.394"/>
		
			<rect x="-1011.913" y="-772.079" transform="matrix(-0.7071 0.7071 -0.7071 -0.7071 -1852.7806 -776.3181)" fill="#F0EFEF" width="492.606" height="0.394"/>
		
			<rect x="-1004.038" y="-772.079" transform="matrix(-0.7071 0.7071 -0.7071 -0.7071 -1839.3372 -781.8866)" fill="#F0EFEF" width="492.606" height="0.394"/>
		
			<rect x="-996.163" y="-772.079" transform="matrix(-0.7071 0.7071 -0.7071 -0.7071 -1825.8945 -787.4532)" fill="#F0EFEF" width="492.605" height="0.394"/>
		
			<rect x="-988.289" y="-772.079" transform="matrix(-0.7071 0.7071 -0.7071 -0.7071 -1812.4519 -793.0228)" fill="#F0EFEF" width="492.606" height="0.394"/>
		
			<rect x="-980.414" y="-772.079" transform="matrix(-0.7071 0.7071 -0.7071 -0.7071 -1799.0084 -798.5912)" fill="#F0EFEF" width="492.606" height="0.394"/>
		
			<rect x="-972.539" y="-772.079" transform="matrix(-0.7071 0.7071 -0.7071 -0.7071 -1785.5658 -804.1594)" fill="#F0EFEF" width="492.606" height="0.394"/>
		
			<rect x="-964.665" y="-772.079" transform="matrix(-0.7071 0.7071 -0.7071 -0.7071 -1772.123 -809.7288)" fill="#F0EFEF" width="492.607" height="0.394"/>
		
			<rect x="-956.79" y="-772.079" transform="matrix(-0.7071 0.7071 -0.7071 -0.7071 -1758.6797 -815.296)" fill="#F0EFEF" width="492.606" height="0.394"/>
		
			<rect x="-948.915" y="-772.079" transform="matrix(-0.7071 0.7071 -0.7071 -0.7071 -1745.2362 -820.8644)" fill="#F0EFEF" width="492.606" height="0.394"/>
		
			<rect x="-941.039" y="-772.079" transform="matrix(-0.7071 0.7071 -0.7071 -0.7071 -1731.7928 -826.4314)" fill="#F0EFEF" width="492.605" height="0.393"/>
		
			<rect x="-933.165" y="-772.079" transform="matrix(-0.7071 0.7071 -0.7071 -0.7071 -1718.3501 -831.9996)" fill="#F0EFEF" width="492.605" height="0.394"/>
		
			<rect x="-925.291" y="-772.079" transform="matrix(-0.7071 0.7071 -0.7071 -0.7071 -1704.9075 -837.5692)" fill="#F0EFEF" width="492.606" height="0.394"/>
		
			<rect x="-917.416" y="-772.079" transform="matrix(-0.7071 0.7071 -0.7071 -0.7071 -1691.464 -843.1376)" fill="#F0EFEF" width="492.606" height="0.394"/>
		
			<rect x="-909.542" y="-772.079" transform="matrix(-0.7071 0.7071 -0.7071 -0.7071 -1678.0221 -848.7068)" fill="#F0EFEF" width="492.607" height="0.394"/>
		
			<rect x="-901.667" y="-772.079" transform="matrix(-0.7071 0.7071 -0.7071 -0.7071 -1664.5787 -854.2739)" fill="#F0EFEF" width="492.606" height="0.394"/>
		
			<rect x="-893.792" y="-772.079" transform="matrix(-0.7071 0.7071 -0.7071 -0.7071 -1651.1353 -859.8423)" fill="#F0EFEF" width="492.606" height="0.394"/>
	</g>
	<g>
		
			<rect x="-884.531" y="-772.079" transform="matrix(-0.7071 0.7071 -0.7071 -0.7071 -1635.3262 -866.3906)" fill="#F0EFEF" width="492.606" height="0.394"/>
		
			<rect x="-876.656" y="-772.079" transform="matrix(-0.7071 0.7071 -0.7071 -0.7071 -1621.8828 -871.959)" fill="#F0EFEF" width="492.606" height="0.394"/>
		
			<rect x="-868.782" y="-772.079" transform="matrix(-0.7071 0.7071 -0.7071 -0.7071 -1608.4408 -877.528)" fill="#F0EFEF" width="492.607" height="0.394"/>
		
			<rect x="-860.907" y="-772.079" transform="matrix(-0.7071 0.7071 -0.7071 -0.7071 -1594.9974 -883.0953)" fill="#F0EFEF" width="492.606" height="0.394"/>
		
			<rect x="-853.032" y="-772.079" transform="matrix(-0.7071 0.7071 -0.7071 -0.7071 -1581.554 -888.6638)" fill="#F0EFEF" width="492.606" height="0.394"/>
		
			<rect x="-845.157" y="-772.079" transform="matrix(-0.7071 0.7071 -0.7071 -0.7071 -1568.1105 -894.2322)" fill="#F0EFEF" width="492.606" height="0.394"/>
		
			<rect x="-837.281" y="-772.079" transform="matrix(-0.7071 0.7071 -0.7071 -0.7071 -1554.6672 -899.7993)" fill="#F0EFEF" width="492.605" height="0.393"/>
		
			<rect x="-829.408" y="-772.079" transform="matrix(-0.7071 0.7071 -0.7071 -0.7071 -1541.2252 -905.3685)" fill="#F0EFEF" width="492.606" height="0.394"/>
		
			<rect x="-821.533" y="-772.079" transform="matrix(-0.7071 0.7071 -0.7071 -0.7071 -1527.7817 -910.937)" fill="#F0EFEF" width="492.606" height="0.394"/>
		
			<rect x="-813.658" y="-772.079" transform="matrix(-0.7071 0.7071 -0.7071 -0.7071 -1514.3391 -916.5051)" fill="#F0EFEF" width="492.606" height="0.394"/>
		
			<rect x="-805.784" y="-772.079" transform="matrix(-0.7071 0.7071 -0.7071 -0.7071 -1500.8962 -922.0745)" fill="#F0EFEF" width="492.607" height="0.394"/>
		
			<rect x="-797.909" y="-772.079" transform="matrix(-0.7071 0.7071 -0.7071 -0.7071 -1487.453 -927.6417)" fill="#F0EFEF" width="492.606" height="0.394"/>
		
			<rect x="-790.034" y="-772.079" transform="matrix(-0.7071 0.7071 -0.7071 -0.7071 -1474.0095 -933.2101)" fill="#F0EFEF" width="492.606" height="0.394"/>
		
			<rect x="-782.159" y="-772.079" transform="matrix(-0.7071 0.7071 -0.7071 -0.7071 -1460.566 -938.7786)" fill="#F0EFEF" width="492.606" height="0.394"/>
		
			<rect x="-774.284" y="-772.079" transform="matrix(-0.7071 0.7071 -0.7071 -0.7071 -1447.1237 -944.3453)" fill="#F0EFEF" width="492.605" height="0.394"/>
		
			<rect x="-766.41" y="-772.079" transform="matrix(-0.7071 0.7071 -0.7071 -0.7071 -1433.6808 -949.9148)" fill="#F0EFEF" width="492.606" height="0.394"/>
		
			<rect x="-758.535" y="-772.079" transform="matrix(-0.7071 0.7071 -0.7071 -0.7071 -1420.2374 -955.4832)" fill="#F0EFEF" width="492.606" height="0.394"/>
		
			<rect x="-750.66" y="-772.079" transform="matrix(-0.7071 0.7071 -0.7071 -0.7071 -1406.7948 -961.0513)" fill="#F0EFEF" width="492.606" height="0.394"/>
		
			<rect x="-742.786" y="-772.079" transform="matrix(-0.7071 0.7071 -0.7071 -0.7071 -1393.3521 -966.6195)" fill="#F0EFEF" width="492.606" height="0.394"/>
		
			<rect x="-734.911" y="-772.079" transform="matrix(-0.7071 0.7071 -0.7071 -0.7071 -1379.9086 -972.1879)" fill="#F0EFEF" width="492.606" height="0.394"/>
		
			<rect x="-727.036" y="-772.079" transform="matrix(-0.7071 0.7071 -0.7071 -0.7071 -1366.4651 -977.7564)" fill="#F0EFEF" width="492.606" height="0.394"/>
		
			<rect x="-719.16" y="-772.079" transform="matrix(-0.7071 0.7071 -0.7071 -0.7071 -1353.022 -983.3236)" fill="#F0EFEF" width="492.605" height="0.393"/>
		
			<rect x="-711.287" y="-772.079" transform="matrix(-0.7071 0.7071 -0.7071 -0.7071 -1339.5798 -988.8926)" fill="#F0EFEF" width="492.606" height="0.394"/>
		
			<rect x="-703.412" y="-772.079" transform="matrix(-0.7071 0.7071 -0.7071 -0.7071 -1326.1364 -994.4611)" fill="#F0EFEF" width="492.606" height="0.394"/>
		
			<rect x="-695.537" y="-772.079" transform="matrix(-0.7071 0.7071 -0.7071 -0.7071 -1312.6929 -1000.0296)" fill="#F0EFEF" width="492.606" height="0.394"/>
		
			<rect x="-687.663" y="-772.079" transform="matrix(-0.7071 0.7071 -0.7071 -0.7071 -1299.2507 -1005.5986)" fill="#F0EFEF" width="492.607" height="0.394"/>
		
			<rect x="-679.788" y="-772.079" transform="matrix(-0.7071 0.7071 -0.7071 -0.7071 -1285.8076 -1011.1658)" fill="#F0EFEF" width="492.606" height="0.394"/>
		
			<rect x="-671.913" y="-772.079" transform="matrix(-0.7071 0.7071 -0.7071 -0.7071 -1272.3641 -1016.7343)" fill="#F0EFEF" width="492.606" height="0.394"/>
		
			<rect x="-664.038" y="-772.079" transform="matrix(-0.7071 0.7071 -0.7071 -0.7071 -1258.9207 -1022.3027)" fill="#F0EFEF" width="492.606" height="0.394"/>
		
			<rect x="-656.163" y="-772.079" transform="matrix(-0.7071 0.7071 -0.7071 -0.7071 -1245.4784 -1027.8696)" fill="#F0EFEF" width="492.605" height="0.394"/>
		
			<rect x="-648.289" y="-772.079" transform="matrix(-0.7071 0.7071 -0.7071 -0.7071 -1232.0354 -1033.439)" fill="#F0EFEF" width="492.606" height="0.394"/>
		
			<rect x="-640.414" y="-772.079" transform="matrix(-0.7071 0.7071 -0.7071 -0.7071 -1218.592 -1039.0074)" fill="#F0EFEF" width="492.606" height="0.394"/>
		
			<rect x="-632.539" y="-772.079" transform="matrix(-0.7071 0.7071 -0.7071 -0.7071 -1205.1494 -1044.5756)" fill="#F0EFEF" width="492.606" height="0.394"/>
		
			<rect x="-624.665" y="-772.079" transform="matrix(-0.7071 0.7071 -0.7071 -0.7071 -1191.7063 -1050.1447)" fill="#F0EFEF" width="492.607" height="0.394"/>
		
			<rect x="-616.79" y="-772.079" transform="matrix(-0.7071 0.7071 -0.7071 -0.7071 -1178.2632 -1055.7122)" fill="#F0EFEF" width="492.606" height="0.394"/>
		
			<rect x="-608.915" y="-772.079" transform="matrix(-0.7071 0.7071 -0.7071 -0.7071 -1164.8197 -1061.2806)" fill="#F0EFEF" width="492.606" height="0.394"/>
		
			<rect x="-601.039" y="-772.079" transform="matrix(-0.7071 0.7071 -0.7071 -0.7071 -1151.3767 -1066.8479)" fill="#F0EFEF" width="492.605" height="0.393"/>
		
			<rect x="-593.165" y="-772.079" transform="matrix(-0.7071 0.7071 -0.7071 -0.7071 -1137.934 -1072.416)" fill="#F0EFEF" width="492.605" height="0.394"/>
		
			<rect x="-585.291" y="-772.079" transform="matrix(-0.7071 0.7071 -0.7071 -0.7071 -1124.491 -1077.9854)" fill="#F0EFEF" width="492.606" height="0.394"/>
		
			<rect x="-577.416" y="-772.079" transform="matrix(-0.7071 0.7071 -0.7071 -0.7071 -1111.0475 -1083.5537)" fill="#F0EFEF" width="492.606" height="0.394"/>
		
			<rect x="-569.542" y="-772.079" transform="matrix(-0.7071 0.7071 -0.7071 -0.7071 -1097.6052 -1089.1227)" fill="#F0EFEF" width="492.607" height="0.394"/>
		
			<rect x="-561.667" y="-772.079" transform="matrix(-0.7071 0.7071 -0.7071 -0.7071 -1084.1622 -1094.6899)" fill="#F0EFEF" width="492.606" height="0.394"/>
		
			<rect x="-553.792" y="-772.079" transform="matrix(-0.7071 0.7071 -0.7071 -0.7071 -1070.7188 -1100.2584)" fill="#F0EFEF" width="492.606" height="0.394"/>
	</g>
	<rect x="-1928.466" y="-824.336" fill="none" width="1280" height="121"/>
</g>
<g>
	<rect x="1.422" y="1.109" fill-rule="evenodd" clip-rule="evenodd" fill="#171717" width="27.406" height="18.923"/>
	<path fill-rule="evenodd" clip-rule="evenodd" fill="#131313" d="M29.615,2.418c0,5.364,0,10.727,0,16.091
		c-0.021,0.078-0.043,0.157-0.063,0.237c-0.383,1.492-1.609,2.445-3.15,2.445c-7.727,0-15.453-0.002-23.181-0.002
		c-0.66,0-1.267-0.169-1.817-0.533C0.628,20.144,0.188,19.408,0,18.51C0,13.227,0,7.946,0,2.665c0.089-0.369,0.191-0.73,0.384-1.06
		C0.898,0.72,1.673,0.204,2.665,0c8.112,0,16.223,0,24.334,0c0.443,0.095,0.861,0.254,1.244,0.502
		C28.948,0.963,29.369,1.628,29.615,2.418z M3.231,1.71C3.41,1.954,3.623,2.122,3.811,2.309c3.52,3.52,7.039,7.038,10.559,10.555
		c0.388,0.388,0.61,0.389,0.997,0c3.658-3.658,7.314-7.318,10.971-10.98c0.048-0.046,0.131-0.079,0.112-0.174
		C18.717,1.71,10.989,1.71,3.231,1.71z M4.827,19.504c0.088,0.071,0.189,0.04,0.283,0.04c6.431,0.002,12.863,0.002,19.293,0
		c0.095,0,0.236,0.046,0.275-0.042c0.051-0.11-0.092-0.172-0.162-0.242c-2.143-2.15-4.289-4.296-6.43-6.446
		c-0.141-0.144-0.219-0.133-0.354,0.003c-0.768,0.78-1.543,1.552-2.316,2.324c-0.43,0.43-0.678,0.431-1.101,0.005
		c-0.794-0.796-1.592-1.593-2.379-2.399c-0.156-0.16-0.247-0.167-0.41-0.002c-2.181,2.193-4.369,4.378-6.553,6.565
		C4.919,19.367,4.84,19.408,4.827,19.504z M27.944,2.654c-0.102,0.015-0.148,0.102-0.209,0.163c-2.822,2.821-5.64,5.644-8.465,8.46
		c-0.165,0.165-0.15,0.25,0.006,0.408c2.484,2.481,4.963,4.969,7.443,7.457c0.065,0.065,0.131,0.125,0.191,0.191
		c0.099,0.104,0.208,0.114,0.336,0.056c0.311-0.142,0.507-0.383,0.625-0.696c0.117-0.308,0.115-0.63,0.115-0.95
		c0.002-4.944,0.002-9.887,0-14.831C27.987,2.827,28.015,2.731,27.944,2.654z M1.858,2.691c-0.021,0.005-0.043,0.01-0.062,0.015
		c0,0.095,0,0.192,0,0.289c0,4.992,0,9.986,0,14.979c0,0.082-0.007,0.164,0.001,0.247c0.035,0.341,0.054,0.692,0.31,0.964
		c0.269,0.286,0.391,0.29,0.662,0.018c2.519-2.52,5.036-5.038,7.554-7.559c0.246-0.246,0.246-0.246-0.002-0.494
		C7.565,8.392,4.81,5.634,2.052,2.877C1.991,2.813,1.924,2.753,1.858,2.691z"/>
</g>
</svg>
