<?xml version="1.0" encoding="utf-8"?>
<!-- Generator: Adobe Illustrator 17.0.0, SVG Export Plug-In . SVG Version: 6.00 Build 0)  -->
<!DOCTYPE svg PUBLIC "-//W3C//DTD SVG 1.1//EN" "http://www.w3.org/Graphics/SVG/1.1/DTD/svg11.dtd">
<svg version="1.1" id="Capa_1" xmlns="http://www.w3.org/2000/svg" xmlns:xlink="http://www.w3.org/1999/xlink" x="0px" y="0px"
	 width="33.508px" height="22.222px" viewBox="0 0 33.508 22.222" enable-background="new 0 0 33.508 22.222" xml:space="preserve">
<g>
	<g>
		
			<rect x="-2243.556" y="-770.503" transform="matrix(-0.7071 0.7071 -0.7071 -0.7071 -3954.2136 97.2759)" fill="#F0EFEF" width="492.606" height="0.394"/>
		
			<rect x="-2235.681" y="-770.503" transform="matrix(-0.7071 0.7071 -0.7071 -0.7071 -3940.7703 91.7074)" fill="#F0EFEF" width="492.606" height="0.394"/>
		
			<rect x="-2227.808" y="-770.503" transform="matrix(-0.7071 0.7071 -0.7071 -0.7071 -3927.3296 86.1373)" fill="#F0EFEF" width="492.607" height="0.394"/>
		
			<rect x="-2219.932" y="-770.503" transform="matrix(-0.7071 0.7071 -0.7071 -0.7071 -3913.885 80.5712)" fill="#F0EFEF" width="492.606" height="0.394"/>
		
			<rect x="-2212.057" y="-770.503" transform="matrix(-0.7071 0.7071 -0.7071 -0.7071 -3900.4414 75.0027)" fill="#F0EFEF" width="492.606" height="0.394"/>
		
			<rect x="-2204.182" y="-770.503" transform="matrix(-0.7071 0.7071 -0.7071 -0.7071 -3886.998 69.4343)" fill="#F0EFEF" width="492.606" height="0.394"/>
		
			<rect x="-2196.307" y="-770.502" transform="matrix(-0.7071 0.7071 -0.7071 -0.7071 -3873.5535 63.8686)" fill="#F0EFEF" width="492.605" height="0.393"/>
		
			<rect x="-2188.433" y="-770.503" transform="matrix(-0.7071 0.7071 -0.7071 -0.7071 -3860.1128 58.298)" fill="#F0EFEF" width="492.606" height="0.394"/>
		
			<rect x="-2180.558" y="-770.503" transform="matrix(-0.7071 0.7071 -0.7071 -0.7071 -3846.6692 52.7296)" fill="#F0EFEF" width="492.606" height="0.394"/>
		
			<rect x="-2172.684" y="-770.503" transform="matrix(-0.7071 0.7071 -0.7071 -0.7071 -3833.2266 47.1614)" fill="#F0EFEF" width="492.606" height="0.394"/>
		
			<rect x="-2164.81" y="-770.503" transform="matrix(-0.7071 0.7071 -0.7071 -0.7071 -3819.7852 41.5906)" fill="#F0EFEF" width="492.607" height="0.394"/>
		
			<rect x="-2156.934" y="-770.503" transform="matrix(-0.7071 0.7071 -0.7071 -0.7071 -3806.3406 36.0249)" fill="#F0EFEF" width="492.606" height="0.394"/>
		
			<rect x="-2149.059" y="-770.503" transform="matrix(-0.7071 0.7071 -0.7071 -0.7071 -3792.8972 30.4564)" fill="#F0EFEF" width="492.606" height="0.394"/>
		
			<rect x="-2141.184" y="-770.503" transform="matrix(-0.7071 0.7071 -0.7071 -0.7071 -3779.4536 24.8879)" fill="#F0EFEF" width="492.606" height="0.394"/>
		
			<rect x="-2133.309" y="-770.503" transform="matrix(-0.7071 0.7071 -0.7071 -0.7071 -3766.0098 19.3225)" fill="#F0EFEF" width="492.605" height="0.394"/>
		
			<rect x="-2125.435" y="-770.503" transform="matrix(-0.7071 0.7071 -0.7071 -0.7071 -3752.5684 13.7517)" fill="#F0EFEF" width="492.606" height="0.394"/>
		
			<rect x="-2117.56" y="-770.503" transform="matrix(-0.7071 0.7071 -0.7071 -0.7071 -3739.125 8.1833)" fill="#F0EFEF" width="492.606" height="0.394"/>
		
			<rect x="-2109.686" y="-770.503" transform="matrix(-0.7071 0.7071 -0.7071 -0.7071 -3725.6821 2.6151)" fill="#F0EFEF" width="492.606" height="0.394"/>
		
			<rect x="-2101.811" y="-770.503" transform="matrix(-0.7071 0.7071 -0.7071 -0.7071 -3712.2395 -2.953)" fill="#F0EFEF" width="492.606" height="0.394"/>
		
			<rect x="-2093.936" y="-770.503" transform="matrix(-0.7071 0.7071 -0.7071 -0.7071 -3698.7961 -8.5214)" fill="#F0EFEF" width="492.606" height="0.394"/>
		
			<rect x="-2086.061" y="-770.503" transform="matrix(-0.7071 0.7071 -0.7071 -0.7071 -3685.3528 -14.0899)" fill="#F0EFEF" width="492.606" height="0.394"/>
		
			<rect x="-2078.186" y="-770.502" transform="matrix(-0.7071 0.7071 -0.7071 -0.7071 -3671.9082 -19.6557)" fill="#F0EFEF" width="492.605" height="0.393"/>
		
			<rect x="-2070.312" y="-770.503" transform="matrix(-0.7071 0.7071 -0.7071 -0.7071 -3658.4673 -25.2261)" fill="#F0EFEF" width="492.606" height="0.394"/>
		
			<rect x="-2062.437" y="-770.503" transform="matrix(-0.7071 0.7071 -0.7071 -0.7071 -3645.0239 -30.7946)" fill="#F0EFEF" width="492.606" height="0.394"/>
		
			<rect x="-2054.562" y="-770.503" transform="matrix(-0.7071 0.7071 -0.7071 -0.7071 -3631.5806 -36.3631)" fill="#F0EFEF" width="492.606" height="0.394"/>
		
			<rect x="-2046.688" y="-770.503" transform="matrix(-0.7071 0.7071 -0.7071 -0.7071 -3618.1396 -41.9334)" fill="#F0EFEF" width="492.607" height="0.394"/>
		
			<rect x="-2038.813" y="-770.503" transform="matrix(-0.7071 0.7071 -0.7071 -0.7071 -3604.6951 -47.4993)" fill="#F0EFEF" width="492.606" height="0.394"/>
		
			<rect x="-2030.938" y="-770.503" transform="matrix(-0.7071 0.7071 -0.7071 -0.7071 -3591.2517 -53.0678)" fill="#F0EFEF" width="492.606" height="0.394"/>
		
			<rect x="-2023.063" y="-770.503" transform="matrix(-0.7071 0.7071 -0.7071 -0.7071 -3577.8083 -58.6362)" fill="#F0EFEF" width="492.606" height="0.394"/>
		
			<rect x="-2015.188" y="-770.503" transform="matrix(-0.7071 0.7071 -0.7071 -0.7071 -3564.3645 -64.2018)" fill="#F0EFEF" width="492.605" height="0.394"/>
		
			<rect x="-2007.314" y="-770.503" transform="matrix(-0.7071 0.7071 -0.7071 -0.7071 -3550.9229 -69.7725)" fill="#F0EFEF" width="492.606" height="0.394"/>
		
			<rect x="-1999.439" y="-770.503" transform="matrix(-0.7071 0.7071 -0.7071 -0.7071 -3537.4795 -75.3409)" fill="#F0EFEF" width="492.606" height="0.394"/>
		
			<rect x="-1991.565" y="-770.503" transform="matrix(-0.7071 0.7071 -0.7071 -0.7071 -3524.0369 -80.909)" fill="#F0EFEF" width="492.606" height="0.394"/>
		
			<rect x="-1983.69" y="-770.503" transform="matrix(-0.7071 0.7071 -0.7071 -0.7071 -3510.595 -86.4793)" fill="#F0EFEF" width="492.607" height="0.394"/>
		
			<rect x="-1975.815" y="-770.503" transform="matrix(-0.7071 0.7071 -0.7071 -0.7071 -3497.1509 -92.0456)" fill="#F0EFEF" width="492.606" height="0.394"/>
		
			<rect x="-1967.94" y="-770.503" transform="matrix(-0.7071 0.7071 -0.7071 -0.7071 -3483.7073 -97.6141)" fill="#F0EFEF" width="492.606" height="0.394"/>
		
			<rect x="-1960.065" y="-770.502" transform="matrix(-0.7071 0.7071 -0.7071 -0.7071 -3470.2629 -103.18)" fill="#F0EFEF" width="492.605" height="0.393"/>
		
			<rect x="-1952.19" y="-770.503" transform="matrix(-0.7071 0.7071 -0.7071 -0.7071 -3456.8203 -108.7481)" fill="#F0EFEF" width="492.605" height="0.394"/>
		
			<rect x="-1944.316" y="-770.503" transform="matrix(-0.7071 0.7071 -0.7071 -0.7071 -3443.3787 -114.3188)" fill="#F0EFEF" width="492.606" height="0.394"/>
		
			<rect x="-1936.441" y="-770.503" transform="matrix(-0.7071 0.7071 -0.7071 -0.7071 -3429.9351 -119.8872)" fill="#F0EFEF" width="492.606" height="0.394"/>
		
			<rect x="-1928.567" y="-770.503" transform="matrix(-0.7071 0.7071 -0.7071 -0.7071 -3416.4941 -125.4575)" fill="#F0EFEF" width="492.607" height="0.394"/>
		
			<rect x="-1920.692" y="-770.503" transform="matrix(-0.7071 0.7071 -0.7071 -0.7071 -3403.0498 -131.0235)" fill="#F0EFEF" width="492.606" height="0.394"/>
		
			<rect x="-1912.817" y="-770.503" transform="matrix(-0.7071 0.7071 -0.7071 -0.7071 -3389.6064 -136.5919)" fill="#F0EFEF" width="492.606" height="0.394"/>
	</g>
	<g>
		
			<rect x="-1903.556" y="-770.503" transform="matrix(-0.7071 0.7071 -0.7071 -0.7071 -3373.7974 -143.1402)" fill="#F0EFEF" width="492.606" height="0.394"/>
		
			<rect x="-1895.681" y="-770.503" transform="matrix(-0.7071 0.7071 -0.7071 -0.7071 -3360.3538 -148.7087)" fill="#F0EFEF" width="492.606" height="0.394"/>
		
			<rect x="-1887.808" y="-770.503" transform="matrix(-0.7071 0.7071 -0.7071 -0.7071 -3346.9126 -154.2785)" fill="#F0EFEF" width="492.607" height="0.394"/>
		
			<rect x="-1879.932" y="-770.503" transform="matrix(-0.7071 0.7071 -0.7071 -0.7071 -3333.4685 -159.8449)" fill="#F0EFEF" width="492.606" height="0.394"/>
		
			<rect x="-1872.057" y="-770.503" transform="matrix(-0.7071 0.7071 -0.7071 -0.7071 -3320.0251 -165.4134)" fill="#F0EFEF" width="492.606" height="0.394"/>
		
			<rect x="-1864.182" y="-770.503" transform="matrix(-0.7071 0.7071 -0.7071 -0.7071 -3306.5815 -170.9819)" fill="#F0EFEF" width="492.606" height="0.394"/>
		
			<rect x="-1856.307" y="-770.502" transform="matrix(-0.7071 0.7071 -0.7071 -0.7071 -3293.1372 -176.5479)" fill="#F0EFEF" width="492.605" height="0.393"/>
		
			<rect x="-1848.433" y="-770.503" transform="matrix(-0.7071 0.7071 -0.7071 -0.7071 -3279.6963 -182.1181)" fill="#F0EFEF" width="492.606" height="0.394"/>
		
			<rect x="-1840.558" y="-770.503" transform="matrix(-0.7071 0.7071 -0.7071 -0.7071 -3266.2529 -187.6866)" fill="#F0EFEF" width="492.606" height="0.394"/>
		
			<rect x="-1832.684" y="-770.503" transform="matrix(-0.7071 0.7071 -0.7071 -0.7071 -3252.8103 -193.2547)" fill="#F0EFEF" width="492.606" height="0.394"/>
		
			<rect x="-1824.81" y="-770.503" transform="matrix(-0.7071 0.7071 -0.7071 -0.7071 -3239.3684 -198.8252)" fill="#F0EFEF" width="492.607" height="0.394"/>
		
			<rect x="-1816.934" y="-770.503" transform="matrix(-0.7071 0.7071 -0.7071 -0.7071 -3225.9241 -204.3913)" fill="#F0EFEF" width="492.606" height="0.394"/>
		
			<rect x="-1809.059" y="-770.503" transform="matrix(-0.7071 0.7071 -0.7071 -0.7071 -3212.4807 -209.9597)" fill="#F0EFEF" width="492.606" height="0.394"/>
		
			<rect x="-1801.184" y="-770.503" transform="matrix(-0.7071 0.7071 -0.7071 -0.7071 -3199.0371 -215.5282)" fill="#F0EFEF" width="492.606" height="0.394"/>
		
			<rect x="-1793.309" y="-770.503" transform="matrix(-0.7071 0.7071 -0.7071 -0.7071 -3185.5938 -221.094)" fill="#F0EFEF" width="492.605" height="0.394"/>
		
			<rect x="-1785.435" y="-770.503" transform="matrix(-0.7071 0.7071 -0.7071 -0.7071 -3172.1519 -226.6644)" fill="#F0EFEF" width="492.606" height="0.394"/>
		
			<rect x="-1777.56" y="-770.503" transform="matrix(-0.7071 0.7071 -0.7071 -0.7071 -3158.7085 -232.2329)" fill="#F0EFEF" width="492.606" height="0.394"/>
		
			<rect x="-1769.686" y="-770.503" transform="matrix(-0.7071 0.7071 -0.7071 -0.7071 -3145.2659 -237.801)" fill="#F0EFEF" width="492.606" height="0.394"/>
		
			<rect x="-1761.811" y="-770.503" transform="matrix(-0.7071 0.7071 -0.7071 -0.7071 -3131.8232 -243.3691)" fill="#F0EFEF" width="492.606" height="0.394"/>
		
			<rect x="-1753.936" y="-770.503" transform="matrix(-0.7071 0.7071 -0.7071 -0.7071 -3118.3796 -248.9376)" fill="#F0EFEF" width="492.606" height="0.394"/>
		
			<rect x="-1746.061" y="-770.503" transform="matrix(-0.7071 0.7071 -0.7071 -0.7071 -3104.9363 -254.506)" fill="#F0EFEF" width="492.606" height="0.394"/>
		
			<rect x="-1738.186" y="-770.502" transform="matrix(-0.7071 0.7071 -0.7071 -0.7071 -3091.4919 -260.0722)" fill="#F0EFEF" width="492.605" height="0.393"/>
		
			<rect x="-1730.312" y="-770.503" transform="matrix(-0.7071 0.7071 -0.7071 -0.7071 -3078.051 -265.6423)" fill="#F0EFEF" width="492.606" height="0.394"/>
		
			<rect x="-1722.437" y="-770.503" transform="matrix(-0.7071 0.7071 -0.7071 -0.7071 -3064.6074 -271.2107)" fill="#F0EFEF" width="492.606" height="0.394"/>
		
			<rect x="-1714.562" y="-770.503" transform="matrix(-0.7071 0.7071 -0.7071 -0.7071 -3051.1641 -276.7792)" fill="#F0EFEF" width="492.606" height="0.394"/>
		
			<rect x="-1706.688" y="-770.503" transform="matrix(-0.7071 0.7071 -0.7071 -0.7071 -3037.7229 -282.3492)" fill="#F0EFEF" width="492.607" height="0.394"/>
		
			<rect x="-1698.813" y="-770.503" transform="matrix(-0.7071 0.7071 -0.7071 -0.7071 -3024.2788 -287.9154)" fill="#F0EFEF" width="492.606" height="0.394"/>
		
			<rect x="-1690.938" y="-770.503" transform="matrix(-0.7071 0.7071 -0.7071 -0.7071 -3010.8352 -293.4839)" fill="#F0EFEF" width="492.606" height="0.394"/>
		
			<rect x="-1683.063" y="-770.503" transform="matrix(-0.7071 0.7071 -0.7071 -0.7071 -2997.3918 -299.0523)" fill="#F0EFEF" width="492.606" height="0.394"/>
		
			<rect x="-1675.188" y="-770.503" transform="matrix(-0.7071 0.7071 -0.7071 -0.7071 -2983.9485 -304.6183)" fill="#F0EFEF" width="492.605" height="0.394"/>
		
			<rect x="-1667.314" y="-770.503" transform="matrix(-0.7071 0.7071 -0.7071 -0.7071 -2970.5066 -310.1886)" fill="#F0EFEF" width="492.606" height="0.394"/>
		
			<rect x="-1659.439" y="-770.503" transform="matrix(-0.7071 0.7071 -0.7071 -0.7071 -2957.063 -315.757)" fill="#F0EFEF" width="492.606" height="0.394"/>
		
			<rect x="-1651.565" y="-770.503" transform="matrix(-0.7071 0.7071 -0.7071 -0.7071 -2943.6204 -321.3252)" fill="#F0EFEF" width="492.606" height="0.394"/>
		
			<rect x="-1643.69" y="-770.503" transform="matrix(-0.7071 0.7071 -0.7071 -0.7071 -2930.1782 -326.8951)" fill="#F0EFEF" width="492.607" height="0.394"/>
		
			<rect x="-1635.815" y="-770.503" transform="matrix(-0.7071 0.7071 -0.7071 -0.7071 -2916.7344 -332.4617)" fill="#F0EFEF" width="492.606" height="0.394"/>
		
			<rect x="-1627.94" y="-770.503" transform="matrix(-0.7071 0.7071 -0.7071 -0.7071 -2903.2908 -338.0302)" fill="#F0EFEF" width="492.606" height="0.394"/>
		
			<rect x="-1620.065" y="-770.502" transform="matrix(-0.7071 0.7071 -0.7071 -0.7071 -2889.8467 -343.5965)" fill="#F0EFEF" width="492.605" height="0.393"/>
		
			<rect x="-1612.19" y="-770.503" transform="matrix(-0.7071 0.7071 -0.7071 -0.7071 -2876.4041 -349.1646)" fill="#F0EFEF" width="492.605" height="0.394"/>
		
			<rect x="-1604.316" y="-770.503" transform="matrix(-0.7071 0.7071 -0.7071 -0.7071 -2862.9622 -354.7349)" fill="#F0EFEF" width="492.606" height="0.394"/>
		
			<rect x="-1596.441" y="-770.503" transform="matrix(-0.7071 0.7071 -0.7071 -0.7071 -2849.5186 -360.3033)" fill="#F0EFEF" width="492.606" height="0.394"/>
		
			<rect x="-1588.567" y="-770.503" transform="matrix(-0.7071 0.7071 -0.7071 -0.7071 -2836.0774 -365.8733)" fill="#F0EFEF" width="492.607" height="0.394"/>
		
			<rect x="-1580.692" y="-770.503" transform="matrix(-0.7071 0.7071 -0.7071 -0.7071 -2822.6333 -371.4396)" fill="#F0EFEF" width="492.606" height="0.394"/>
		
			<rect x="-1572.817" y="-770.503" transform="matrix(-0.7071 0.7071 -0.7071 -0.7071 -2809.1899 -377.0081)" fill="#F0EFEF" width="492.606" height="0.394"/>
	</g>
	<g>
		
			<rect x="-1563.556" y="-770.503" transform="matrix(-0.7071 0.7071 -0.7071 -0.7071 -2793.3809 -383.5563)" fill="#F0EFEF" width="492.606" height="0.394"/>
		
			<rect x="-1555.681" y="-770.503" transform="matrix(-0.7071 0.7071 -0.7071 -0.7071 -2779.9375 -389.1248)" fill="#F0EFEF" width="492.606" height="0.394"/>
		
			<rect x="-1547.808" y="-770.503" transform="matrix(-0.7071 0.7071 -0.7071 -0.7071 -2766.4958 -394.6944)" fill="#F0EFEF" width="492.607" height="0.394"/>
		
			<rect x="-1539.932" y="-770.503" transform="matrix(-0.7071 0.7071 -0.7071 -0.7071 -2753.052 -400.2611)" fill="#F0EFEF" width="492.606" height="0.394"/>
		
			<rect x="-1532.057" y="-770.503" transform="matrix(-0.7071 0.7071 -0.7071 -0.7071 -2739.6086 -405.8295)" fill="#F0EFEF" width="492.606" height="0.394"/>
		
			<rect x="-1524.182" y="-770.503" transform="matrix(-0.7071 0.7071 -0.7071 -0.7071 -2726.165 -411.398)" fill="#F0EFEF" width="492.606" height="0.394"/>
		
			<rect x="-1516.307" y="-770.502" transform="matrix(-0.7071 0.7071 -0.7071 -0.7071 -2712.7212 -416.9644)" fill="#F0EFEF" width="492.605" height="0.393"/>
		
			<rect x="-1508.433" y="-770.503" transform="matrix(-0.7071 0.7071 -0.7071 -0.7071 -2699.2798 -422.5342)" fill="#F0EFEF" width="492.606" height="0.394"/>
		
			<rect x="-1500.558" y="-770.503" transform="matrix(-0.7071 0.7071 -0.7071 -0.7071 -2685.8364 -428.1027)" fill="#F0EFEF" width="492.606" height="0.394"/>
		
			<rect x="-1492.684" y="-770.503" transform="matrix(-0.7071 0.7071 -0.7071 -0.7071 -2672.3938 -433.6708)" fill="#F0EFEF" width="492.606" height="0.394"/>
		
			<rect x="-1484.81" y="-770.503" transform="matrix(-0.7071 0.7071 -0.7071 -0.7071 -2658.9517 -439.241)" fill="#F0EFEF" width="492.607" height="0.394"/>
		
			<rect x="-1476.934" y="-770.503" transform="matrix(-0.7071 0.7071 -0.7071 -0.7071 -2645.5076 -444.8074)" fill="#F0EFEF" width="492.606" height="0.394"/>
		
			<rect x="-1469.059" y="-770.503" transform="matrix(-0.7071 0.7071 -0.7071 -0.7071 -2632.0642 -450.3759)" fill="#F0EFEF" width="492.606" height="0.394"/>
		
			<rect x="-1461.184" y="-770.503" transform="matrix(-0.7071 0.7071 -0.7071 -0.7071 -2618.6206 -455.9443)" fill="#F0EFEF" width="492.606" height="0.394"/>
		
			<rect x="-1453.309" y="-770.503" transform="matrix(-0.7071 0.7071 -0.7071 -0.7071 -2605.1777 -461.5104)" fill="#F0EFEF" width="492.605" height="0.394"/>
		
			<rect x="-1445.435" y="-770.503" transform="matrix(-0.7071 0.7071 -0.7071 -0.7071 -2591.7356 -467.0805)" fill="#F0EFEF" width="492.606" height="0.394"/>
		
			<rect x="-1437.56" y="-770.503" transform="matrix(-0.7071 0.7071 -0.7071 -0.7071 -2578.292 -472.649)" fill="#F0EFEF" width="492.606" height="0.394"/>
		
			<rect x="-1429.686" y="-770.503" transform="matrix(-0.7071 0.7071 -0.7071 -0.7071 -2564.8494 -478.2171)" fill="#F0EFEF" width="492.606" height="0.394"/>
		
			<rect x="-1421.811" y="-770.503" transform="matrix(-0.7071 0.7071 -0.7071 -0.7071 -2551.4067 -483.7852)" fill="#F0EFEF" width="492.606" height="0.394"/>
		
			<rect x="-1413.936" y="-770.503" transform="matrix(-0.7071 0.7071 -0.7071 -0.7071 -2537.9631 -489.3537)" fill="#F0EFEF" width="492.606" height="0.394"/>
		
			<rect x="-1406.061" y="-770.503" transform="matrix(-0.7071 0.7071 -0.7071 -0.7071 -2524.5198 -494.9222)" fill="#F0EFEF" width="492.606" height="0.394"/>
		
			<rect x="-1398.186" y="-770.502" transform="matrix(-0.7071 0.7071 -0.7071 -0.7071 -2511.0759 -500.4887)" fill="#F0EFEF" width="492.605" height="0.393"/>
		
			<rect x="-1390.312" y="-770.503" transform="matrix(-0.7071 0.7071 -0.7071 -0.7071 -2497.6345 -506.0584)" fill="#F0EFEF" width="492.606" height="0.394"/>
		
			<rect x="-1382.437" y="-770.503" transform="matrix(-0.7071 0.7071 -0.7071 -0.7071 -2484.1909 -511.6269)" fill="#F0EFEF" width="492.606" height="0.394"/>
		
			<rect x="-1374.562" y="-770.503" transform="matrix(-0.7071 0.7071 -0.7071 -0.7071 -2470.7476 -517.1953)" fill="#F0EFEF" width="492.606" height="0.394"/>
		
			<rect x="-1366.688" y="-770.503" transform="matrix(-0.7071 0.7071 -0.7071 -0.7071 -2457.3062 -522.765)" fill="#F0EFEF" width="492.607" height="0.394"/>
		
			<rect x="-1358.813" y="-770.503" transform="matrix(-0.7071 0.7071 -0.7071 -0.7071 -2443.8623 -528.3315)" fill="#F0EFEF" width="492.606" height="0.394"/>
		
			<rect x="-1350.938" y="-770.503" transform="matrix(-0.7071 0.7071 -0.7071 -0.7071 -2430.4187 -533.9)" fill="#F0EFEF" width="492.606" height="0.394"/>
		
			<rect x="-1343.063" y="-770.503" transform="matrix(-0.7071 0.7071 -0.7071 -0.7071 -2416.9753 -539.4685)" fill="#F0EFEF" width="492.606" height="0.394"/>
		
			<rect x="-1335.188" y="-770.503" transform="matrix(-0.7071 0.7071 -0.7071 -0.7071 -2403.5322 -545.0347)" fill="#F0EFEF" width="492.605" height="0.394"/>
		
			<rect x="-1327.314" y="-770.503" transform="matrix(-0.7071 0.7071 -0.7071 -0.7071 -2390.0901 -550.6047)" fill="#F0EFEF" width="492.606" height="0.394"/>
		
			<rect x="-1319.439" y="-770.503" transform="matrix(-0.7071 0.7071 -0.7071 -0.7071 -2376.6465 -556.1732)" fill="#F0EFEF" width="492.606" height="0.394"/>
		
			<rect x="-1311.565" y="-770.503" transform="matrix(-0.7071 0.7071 -0.7071 -0.7071 -2363.2041 -561.7413)" fill="#F0EFEF" width="492.606" height="0.394"/>
		
			<rect x="-1303.69" y="-770.503" transform="matrix(-0.7071 0.7071 -0.7071 -0.7071 -2349.7615 -567.3113)" fill="#F0EFEF" width="492.607" height="0.394"/>
		
			<rect x="-1295.815" y="-770.503" transform="matrix(-0.7071 0.7071 -0.7071 -0.7071 -2336.3179 -572.8779)" fill="#F0EFEF" width="492.606" height="0.394"/>
		
			<rect x="-1287.94" y="-770.503" transform="matrix(-0.7071 0.7071 -0.7071 -0.7071 -2322.8743 -578.4464)" fill="#F0EFEF" width="492.606" height="0.394"/>
		
			<rect x="-1280.065" y="-770.502" transform="matrix(-0.7071 0.7071 -0.7071 -0.7071 -2309.4307 -584.013)" fill="#F0EFEF" width="492.605" height="0.393"/>
		
			<rect x="-1272.19" y="-770.503" transform="matrix(-0.7071 0.7071 -0.7071 -0.7071 -2295.9878 -589.5811)" fill="#F0EFEF" width="492.605" height="0.394"/>
		
			<rect x="-1264.316" y="-770.503" transform="matrix(-0.7071 0.7071 -0.7071 -0.7071 -2282.5457 -595.151)" fill="#F0EFEF" width="492.606" height="0.394"/>
		
			<rect x="-1256.441" y="-770.503" transform="matrix(-0.7071 0.7071 -0.7071 -0.7071 -2269.1021 -600.7195)" fill="#F0EFEF" width="492.606" height="0.394"/>
		
			<rect x="-1248.567" y="-770.503" transform="matrix(-0.7071 0.7071 -0.7071 -0.7071 -2255.6606 -606.2891)" fill="#F0EFEF" width="492.607" height="0.394"/>
		
			<rect x="-1240.692" y="-770.503" transform="matrix(-0.7071 0.7071 -0.7071 -0.7071 -2242.2168 -611.8557)" fill="#F0EFEF" width="492.606" height="0.394"/>
		
			<rect x="-1232.817" y="-770.503" transform="matrix(-0.7071 0.7071 -0.7071 -0.7071 -2228.7734 -617.4242)" fill="#F0EFEF" width="492.606" height="0.394"/>
	</g>
	<g>
		
			<rect x="-1223.556" y="-770.503" transform="matrix(-0.7071 0.7071 -0.7071 -0.7071 -2212.9644 -623.9725)" fill="#F0EFEF" width="492.606" height="0.394"/>
		
			<rect x="-1215.681" y="-770.503" transform="matrix(-0.7071 0.7071 -0.7071 -0.7071 -2199.521 -629.541)" fill="#F0EFEF" width="492.606" height="0.394"/>
		
			<rect x="-1207.808" y="-770.503" transform="matrix(-0.7071 0.7071 -0.7071 -0.7071 -2186.0791 -635.1105)" fill="#F0EFEF" width="492.607" height="0.394"/>
		
			<rect x="-1199.932" y="-770.503" transform="matrix(-0.7071 0.7071 -0.7071 -0.7071 -2172.6355 -640.6772)" fill="#F0EFEF" width="492.606" height="0.394"/>
		
			<rect x="-1192.057" y="-770.503" transform="matrix(-0.7071 0.7071 -0.7071 -0.7071 -2159.1921 -646.2457)" fill="#F0EFEF" width="492.606" height="0.394"/>
		
			<rect x="-1184.182" y="-770.503" transform="matrix(-0.7071 0.7071 -0.7071 -0.7071 -2145.7485 -651.8141)" fill="#F0EFEF" width="492.606" height="0.394"/>
		
			<rect x="-1176.307" y="-770.502" transform="matrix(-0.7071 0.7071 -0.7071 -0.7071 -2132.3049 -657.3809)" fill="#F0EFEF" width="492.605" height="0.393"/>
		
			<rect x="-1168.433" y="-770.503" transform="matrix(-0.7071 0.7071 -0.7071 -0.7071 -2118.8633 -662.9504)" fill="#F0EFEF" width="492.606" height="0.394"/>
		
			<rect x="-1160.558" y="-770.503" transform="matrix(-0.7071 0.7071 -0.7071 -0.7071 -2105.4199 -668.5189)" fill="#F0EFEF" width="492.606" height="0.394"/>
		
			<rect x="-1152.684" y="-770.503" transform="matrix(-0.7071 0.7071 -0.7071 -0.7071 -2091.9773 -674.087)" fill="#F0EFEF" width="492.606" height="0.394"/>
		
			<rect x="-1144.81" y="-770.503" transform="matrix(-0.7071 0.7071 -0.7071 -0.7071 -2078.5347 -679.6567)" fill="#F0EFEF" width="492.607" height="0.394"/>
		
			<rect x="-1136.934" y="-770.503" transform="matrix(-0.7071 0.7071 -0.7071 -0.7071 -2065.0911 -685.2235)" fill="#F0EFEF" width="492.606" height="0.394"/>
		
			<rect x="-1129.059" y="-770.503" transform="matrix(-0.7071 0.7071 -0.7071 -0.7071 -2051.6477 -690.792)" fill="#F0EFEF" width="492.606" height="0.394"/>
		
			<rect x="-1121.184" y="-770.503" transform="matrix(-0.7071 0.7071 -0.7071 -0.7071 -2038.2042 -696.3605)" fill="#F0EFEF" width="492.606" height="0.394"/>
		
			<rect x="-1113.309" y="-770.503" transform="matrix(-0.7071 0.7071 -0.7071 -0.7071 -2024.7615 -701.9269)" fill="#F0EFEF" width="492.605" height="0.394"/>
		
			<rect x="-1105.435" y="-770.503" transform="matrix(-0.7071 0.7071 -0.7071 -0.7071 -2011.319 -707.4966)" fill="#F0EFEF" width="492.606" height="0.394"/>
		
			<rect x="-1097.56" y="-770.503" transform="matrix(-0.7071 0.7071 -0.7071 -0.7071 -1997.8756 -713.0651)" fill="#F0EFEF" width="492.606" height="0.394"/>
		
			<rect x="-1089.686" y="-770.503" transform="matrix(-0.7071 0.7071 -0.7071 -0.7071 -1984.4329 -718.6332)" fill="#F0EFEF" width="492.606" height="0.394"/>
		
			<rect x="-1081.811" y="-770.503" transform="matrix(-0.7071 0.7071 -0.7071 -0.7071 -1970.9902 -724.2014)" fill="#F0EFEF" width="492.606" height="0.394"/>
		
			<rect x="-1073.936" y="-770.503" transform="matrix(-0.7071 0.7071 -0.7071 -0.7071 -1957.5468 -729.7698)" fill="#F0EFEF" width="492.606" height="0.394"/>
		
			<rect x="-1066.061" y="-770.503" transform="matrix(-0.7071 0.7071 -0.7071 -0.7071 -1944.1033 -735.3383)" fill="#F0EFEF" width="492.606" height="0.394"/>
		
			<rect x="-1058.186" y="-770.502" transform="matrix(-0.7071 0.7071 -0.7071 -0.7071 -1930.6597 -740.9052)" fill="#F0EFEF" width="492.605" height="0.393"/>
		
			<rect x="-1050.312" y="-770.503" transform="matrix(-0.7071 0.7071 -0.7071 -0.7071 -1917.218 -746.4745)" fill="#F0EFEF" width="492.606" height="0.394"/>
		
			<rect x="-1042.437" y="-770.503" transform="matrix(-0.7071 0.7071 -0.7071 -0.7071 -1903.7745 -752.043)" fill="#F0EFEF" width="492.606" height="0.394"/>
		
			<rect x="-1034.562" y="-770.503" transform="matrix(-0.7071 0.7071 -0.7071 -0.7071 -1890.3311 -757.6115)" fill="#F0EFEF" width="492.606" height="0.394"/>
		
			<rect x="-1026.688" y="-770.503" transform="matrix(-0.7071 0.7071 -0.7071 -0.7071 -1876.8893 -763.1808)" fill="#F0EFEF" width="492.607" height="0.394"/>
		
			<rect x="-1018.813" y="-770.503" transform="matrix(-0.7071 0.7071 -0.7071 -0.7071 -1863.4458 -768.7477)" fill="#F0EFEF" width="492.606" height="0.394"/>
		
			<rect x="-1010.938" y="-770.503" transform="matrix(-0.7071 0.7071 -0.7071 -0.7071 -1850.0023 -774.3162)" fill="#F0EFEF" width="492.606" height="0.394"/>
		
			<rect x="-1003.063" y="-770.503" transform="matrix(-0.7071 0.7071 -0.7071 -0.7071 -1836.5588 -779.8846)" fill="#F0EFEF" width="492.606" height="0.394"/>
		
			<rect x="-995.188" y="-770.503" transform="matrix(-0.7071 0.7071 -0.7071 -0.7071 -1823.1162 -785.4512)" fill="#F0EFEF" width="492.605" height="0.394"/>
		
			<rect x="-987.314" y="-770.503" transform="matrix(-0.7071 0.7071 -0.7071 -0.7071 -1809.6736 -791.0208)" fill="#F0EFEF" width="492.606" height="0.394"/>
		
			<rect x="-979.439" y="-770.503" transform="matrix(-0.7071 0.7071 -0.7071 -0.7071 -1796.2301 -796.5893)" fill="#F0EFEF" width="492.606" height="0.394"/>
		
			<rect x="-971.565" y="-770.503" transform="matrix(-0.7071 0.7071 -0.7071 -0.7071 -1782.7875 -802.1574)" fill="#F0EFEF" width="492.606" height="0.394"/>
		
			<rect x="-963.69" y="-770.503" transform="matrix(-0.7071 0.7071 -0.7071 -0.7071 -1769.3447 -807.7268)" fill="#F0EFEF" width="492.607" height="0.394"/>
		
			<rect x="-955.815" y="-770.503" transform="matrix(-0.7071 0.7071 -0.7071 -0.7071 -1755.9014 -813.294)" fill="#F0EFEF" width="492.606" height="0.394"/>
		
			<rect x="-947.94" y="-770.503" transform="matrix(-0.7071 0.7071 -0.7071 -0.7071 -1742.4579 -818.8625)" fill="#F0EFEF" width="492.606" height="0.394"/>
		
			<rect x="-940.065" y="-770.502" transform="matrix(-0.7071 0.7071 -0.7071 -0.7071 -1729.0144 -824.4294)" fill="#F0EFEF" width="492.605" height="0.393"/>
		
			<rect x="-932.19" y="-770.503" transform="matrix(-0.7071 0.7071 -0.7071 -0.7071 -1715.5718 -829.9976)" fill="#F0EFEF" width="492.605" height="0.394"/>
		
			<rect x="-924.316" y="-770.503" transform="matrix(-0.7071 0.7071 -0.7071 -0.7071 -1702.129 -835.5672)" fill="#F0EFEF" width="492.606" height="0.394"/>
		
			<rect x="-916.441" y="-770.503" transform="matrix(-0.7071 0.7071 -0.7071 -0.7071 -1688.6855 -841.1356)" fill="#F0EFEF" width="492.606" height="0.394"/>
		
			<rect x="-908.567" y="-770.503" transform="matrix(-0.7071 0.7071 -0.7071 -0.7071 -1675.2438 -846.7048)" fill="#F0EFEF" width="492.607" height="0.394"/>
		
			<rect x="-900.692" y="-770.503" transform="matrix(-0.7071 0.7071 -0.7071 -0.7071 -1661.8004 -852.2719)" fill="#F0EFEF" width="492.606" height="0.394"/>
		
			<rect x="-892.817" y="-770.503" transform="matrix(-0.7071 0.7071 -0.7071 -0.7071 -1648.3569 -857.8403)" fill="#F0EFEF" width="492.606" height="0.394"/>
	</g>
	<g>
		
			<rect x="-883.556" y="-770.503" transform="matrix(-0.7071 0.7071 -0.7071 -0.7071 -1632.5479 -864.3886)" fill="#F0EFEF" width="492.606" height="0.394"/>
		
			<rect x="-875.681" y="-770.503" transform="matrix(-0.7071 0.7071 -0.7071 -0.7071 -1619.1044 -869.9571)" fill="#F0EFEF" width="492.606" height="0.394"/>
		
			<rect x="-867.808" y="-770.503" transform="matrix(-0.7071 0.7071 -0.7071 -0.7071 -1605.6625 -875.5261)" fill="#F0EFEF" width="492.607" height="0.394"/>
		
			<rect x="-859.932" y="-770.503" transform="matrix(-0.7071 0.7071 -0.7071 -0.7071 -1592.2191 -881.0933)" fill="#F0EFEF" width="492.606" height="0.394"/>
		
			<rect x="-852.057" y="-770.503" transform="matrix(-0.7071 0.7071 -0.7071 -0.7071 -1578.7756 -886.6618)" fill="#F0EFEF" width="492.606" height="0.394"/>
		
			<rect x="-844.182" y="-770.503" transform="matrix(-0.7071 0.7071 -0.7071 -0.7071 -1565.3322 -892.2303)" fill="#F0EFEF" width="492.606" height="0.394"/>
		
			<rect x="-836.307" y="-770.502" transform="matrix(-0.7071 0.7071 -0.7071 -0.7071 -1551.8888 -897.7974)" fill="#F0EFEF" width="492.605" height="0.393"/>
		
			<rect x="-828.433" y="-770.503" transform="matrix(-0.7071 0.7071 -0.7071 -0.7071 -1538.4468 -903.3665)" fill="#F0EFEF" width="492.606" height="0.394"/>
		
			<rect x="-820.558" y="-770.503" transform="matrix(-0.7071 0.7071 -0.7071 -0.7071 -1525.0033 -908.935)" fill="#F0EFEF" width="492.606" height="0.394"/>
		
			<rect x="-812.684" y="-770.503" transform="matrix(-0.7071 0.7071 -0.7071 -0.7071 -1511.5608 -914.5031)" fill="#F0EFEF" width="492.606" height="0.394"/>
		
			<rect x="-804.81" y="-770.503" transform="matrix(-0.7071 0.7071 -0.7071 -0.7071 -1498.1179 -920.0725)" fill="#F0EFEF" width="492.607" height="0.394"/>
		
			<rect x="-796.934" y="-770.503" transform="matrix(-0.7071 0.7071 -0.7071 -0.7071 -1484.6747 -925.6396)" fill="#F0EFEF" width="492.606" height="0.394"/>
		
			<rect x="-789.059" y="-770.503" transform="matrix(-0.7071 0.7071 -0.7071 -0.7071 -1471.2312 -931.2081)" fill="#F0EFEF" width="492.606" height="0.394"/>
		
			<rect x="-781.184" y="-770.503" transform="matrix(-0.7071 0.7071 -0.7071 -0.7071 -1457.7877 -936.7766)" fill="#F0EFEF" width="492.606" height="0.394"/>
		
			<rect x="-773.309" y="-770.503" transform="matrix(-0.7071 0.7071 -0.7071 -0.7071 -1444.3453 -942.3434)" fill="#F0EFEF" width="492.605" height="0.394"/>
		
			<rect x="-765.435" y="-770.503" transform="matrix(-0.7071 0.7071 -0.7071 -0.7071 -1430.9025 -947.9128)" fill="#F0EFEF" width="492.606" height="0.394"/>
		
			<rect x="-757.56" y="-770.503" transform="matrix(-0.7071 0.7071 -0.7071 -0.7071 -1417.459 -953.4813)" fill="#F0EFEF" width="492.606" height="0.394"/>
		
			<rect x="-749.686" y="-770.503" transform="matrix(-0.7071 0.7071 -0.7071 -0.7071 -1404.0164 -959.0494)" fill="#F0EFEF" width="492.606" height="0.394"/>
		
			<rect x="-741.811" y="-770.503" transform="matrix(-0.7071 0.7071 -0.7071 -0.7071 -1390.5737 -964.6175)" fill="#F0EFEF" width="492.606" height="0.394"/>
		
			<rect x="-733.936" y="-770.503" transform="matrix(-0.7071 0.7071 -0.7071 -0.7071 -1377.1302 -970.186)" fill="#F0EFEF" width="492.606" height="0.394"/>
		
			<rect x="-726.061" y="-770.503" transform="matrix(-0.7071 0.7071 -0.7071 -0.7071 -1363.6868 -975.7545)" fill="#F0EFEF" width="492.606" height="0.394"/>
		
			<rect x="-718.186" y="-770.502" transform="matrix(-0.7071 0.7071 -0.7071 -0.7071 -1350.2435 -981.3217)" fill="#F0EFEF" width="492.605" height="0.393"/>
		
			<rect x="-710.312" y="-770.503" transform="matrix(-0.7071 0.7071 -0.7071 -0.7071 -1336.8014 -986.8907)" fill="#F0EFEF" width="492.606" height="0.394"/>
		
			<rect x="-702.437" y="-770.503" transform="matrix(-0.7071 0.7071 -0.7071 -0.7071 -1323.3579 -992.4592)" fill="#F0EFEF" width="492.606" height="0.394"/>
		
			<rect x="-694.562" y="-770.503" transform="matrix(-0.7071 0.7071 -0.7071 -0.7071 -1309.9146 -998.0276)" fill="#F0EFEF" width="492.606" height="0.394"/>
		
			<rect x="-686.688" y="-770.503" transform="matrix(-0.7071 0.7071 -0.7071 -0.7071 -1296.4724 -1003.5966)" fill="#F0EFEF" width="492.607" height="0.394"/>
		
			<rect x="-678.813" y="-770.503" transform="matrix(-0.7071 0.7071 -0.7071 -0.7071 -1283.0293 -1009.1638)" fill="#F0EFEF" width="492.606" height="0.394"/>
		
			<rect x="-670.938" y="-770.503" transform="matrix(-0.7071 0.7071 -0.7071 -0.7071 -1269.5858 -1014.7323)" fill="#F0EFEF" width="492.606" height="0.394"/>
		
			<rect x="-663.063" y="-770.503" transform="matrix(-0.7071 0.7071 -0.7071 -0.7071 -1256.1423 -1020.3007)" fill="#F0EFEF" width="492.606" height="0.394"/>
		
			<rect x="-655.188" y="-770.503" transform="matrix(-0.7071 0.7071 -0.7071 -0.7071 -1242.7001 -1025.8677)" fill="#F0EFEF" width="492.605" height="0.394"/>
		
			<rect x="-647.314" y="-770.503" transform="matrix(-0.7071 0.7071 -0.7071 -0.7071 -1229.2571 -1031.437)" fill="#F0EFEF" width="492.606" height="0.394"/>
		
			<rect x="-639.439" y="-770.503" transform="matrix(-0.7071 0.7071 -0.7071 -0.7071 -1215.8136 -1037.0054)" fill="#F0EFEF" width="492.606" height="0.394"/>
		
			<rect x="-631.565" y="-770.503" transform="matrix(-0.7071 0.7071 -0.7071 -0.7071 -1202.371 -1042.5735)" fill="#F0EFEF" width="492.606" height="0.394"/>
		
			<rect x="-623.69" y="-770.503" transform="matrix(-0.7071 0.7071 -0.7071 -0.7071 -1188.928 -1048.1427)" fill="#F0EFEF" width="492.607" height="0.394"/>
		
			<rect x="-615.815" y="-770.503" transform="matrix(-0.7071 0.7071 -0.7071 -0.7071 -1175.4849 -1053.7101)" fill="#F0EFEF" width="492.606" height="0.394"/>
		
			<rect x="-607.94" y="-770.503" transform="matrix(-0.7071 0.7071 -0.7071 -0.7071 -1162.0414 -1059.2786)" fill="#F0EFEF" width="492.606" height="0.394"/>
		
			<rect x="-600.065" y="-770.502" transform="matrix(-0.7071 0.7071 -0.7071 -0.7071 -1148.5983 -1064.8459)" fill="#F0EFEF" width="492.605" height="0.393"/>
		
			<rect x="-592.19" y="-770.503" transform="matrix(-0.7071 0.7071 -0.7071 -0.7071 -1135.1556 -1070.4141)" fill="#F0EFEF" width="492.605" height="0.394"/>
		
			<rect x="-584.316" y="-770.503" transform="matrix(-0.7071 0.7071 -0.7071 -0.7071 -1121.7125 -1075.9833)" fill="#F0EFEF" width="492.606" height="0.394"/>
		
			<rect x="-576.441" y="-770.503" transform="matrix(-0.7071 0.7071 -0.7071 -0.7071 -1108.2692 -1081.5518)" fill="#F0EFEF" width="492.606" height="0.394"/>
		
			<rect x="-568.567" y="-770.503" transform="matrix(-0.7071 0.7071 -0.7071 -0.7071 -1094.8269 -1087.1206)" fill="#F0EFEF" width="492.607" height="0.394"/>
		
			<rect x="-560.692" y="-770.503" transform="matrix(-0.7071 0.7071 -0.7071 -0.7071 -1081.3839 -1092.688)" fill="#F0EFEF" width="492.606" height="0.394"/>
		
			<rect x="-552.817" y="-770.503" transform="matrix(-0.7071 0.7071 -0.7071 -0.7071 -1067.9404 -1098.2565)" fill="#F0EFEF" width="492.606" height="0.394"/>
	</g>
	<rect x="-1927.491" y="-822.76" fill="none" width="1280" height="121"/>
</g>
<g>
	<g>
		<g>
			<path fill-rule="evenodd" clip-rule="evenodd" fill="#171717" d="M33.098,11.013c0,0.107,0,0.214,0,0.322
				c-0.062,0.101-0.125,0.2-0.185,0.303c-1.571,2.718-3.562,5.075-6.063,6.98c-4.051,3.086-8.597,4.195-13.607,3.309
				c-4.629-0.819-8.258-3.253-11.072-6.966C1.314,13.831,0.616,12.608,0,11.335c0-0.108,0-0.216,0-0.322
				c1.605-2.797,3.636-5.229,6.181-7.218c2.806-2.193,5.959-3.52,9.538-3.707c3.003-0.158,5.841,0.489,8.495,1.907
				c3.045,1.63,5.446,3.972,7.443,6.758C32.179,9.482,32.623,10.256,33.098,11.013z M16.569,17.984
				c3.621,0.055,6.852-2.617,6.858-6.832c0.006-4.172-3.151-6.876-6.832-6.86c-3.949,0.017-6.875,2.911-6.876,6.851
				C9.717,15.059,12.644,17.981,16.569,17.984z"/>
			<path fill-rule="evenodd" clip-rule="evenodd" fill="#171717" d="M16.599,6.98c2.256,0.001,4.168,1.915,4.16,4.167
				c-0.006,2.263-1.928,4.159-4.209,4.156c-2.258-0.003-4.159-1.912-4.156-4.17C12.396,8.858,14.299,6.979,16.599,6.98z"/>
		</g>
	</g>
	<g>
		<path fill-rule="evenodd" clip-rule="evenodd" fill="#131313" d="M32.108,8.691c-1.996-2.787-4.377-5.13-7.422-6.758
			c-2.654-1.42-5.483-2.066-8.484-1.909c-3.58,0.188-6.719,1.515-9.526,3.707c-2.545,1.99-4.166,4.422-6.166,7.218
			c0,0.108,0,0.216,0,0.324c0,0.194,0.185,0.383,0.283,0.575c1.557-2.593,3.49-4.862,5.884-6.735
			c2.807-2.192,5.957-3.519,9.537-3.707c3.002-0.157,5.841,0.488,8.494,1.91c3.044,1.628,5.446,3.97,7.444,6.757
			c0.4,0.559,0.757,1.147,1.114,1.733c0.047-0.078,0.055-0.153,0.1-0.23c0.059-0.102,0.144-0.203,0.144-0.303
			c0-0.108,0-0.216,0-0.324C33.508,10.192,32.629,9.418,32.108,8.691z"/>
	</g>
	<path fill-rule="evenodd" clip-rule="evenodd" fill="#131313" d="M17.09,8.296c2.017,0.002,3.754,1.532,4.096,3.466
		c0.039-0.224,0.064-0.448,0.064-0.679c0.008-2.252-1.904-4.165-4.16-4.167c-2.3-0.002-4.203,1.878-4.205,4.153
		c0,0.238,0.031,0.468,0.072,0.697C13.295,9.81,15.028,8.295,17.09,8.296z"/>
</g>
</svg>
