<?xml version="1.0" encoding="utf-8"?>
<!-- Generator: Adobe Illustrator 17.0.0, SVG Export Plug-In . SVG Version: 6.00 Build 0)  -->
<!DOCTYPE svg PUBLIC "-//W3C//DTD SVG 1.1//EN" "http://www.w3.org/Graphics/SVG/1.1/DTD/svg11.dtd">
<svg version="1.1" id="Capa_1" xmlns="http://www.w3.org/2000/svg" xmlns:xlink="http://www.w3.org/1999/xlink" x="0px" y="0px"
	 width="21.786px" height="23.211px" viewBox="0 0 21.786 23.211" enable-background="new 0 0 21.786 23.211" xml:space="preserve">
<g>
	<g>
		
			<rect x="-2248.457" y="-770.742" transform="matrix(-0.7071 0.7071 -0.7071 -0.7071 -3962.7498 100.3317)" fill="#F0EFEF" width="492.606" height="0.394"/>
		
			<rect x="-2240.582" y="-770.742" transform="matrix(-0.7071 0.7071 -0.7071 -0.7071 -3949.3062 94.7632)" fill="#F0EFEF" width="492.606" height="0.394"/>
		
			<rect x="-2232.708" y="-770.743" transform="matrix(-0.7071 0.7071 -0.7071 -0.7071 -3935.8655 89.1931)" fill="#F0EFEF" width="492.607" height="0.394"/>
		
			<rect x="-2224.833" y="-770.742" transform="matrix(-0.7071 0.7071 -0.7071 -0.7071 -3922.4209 83.627)" fill="#F0EFEF" width="492.606" height="0.394"/>
		
			<rect x="-2216.958" y="-770.742" transform="matrix(-0.7071 0.7071 -0.7071 -0.7071 -3908.9775 78.0585)" fill="#F0EFEF" width="492.606" height="0.394"/>
		
			<rect x="-2209.083" y="-770.742" transform="matrix(-0.7071 0.7071 -0.7071 -0.7071 -3895.5339 72.49)" fill="#F0EFEF" width="492.606" height="0.394"/>
		
			<rect x="-2201.208" y="-770.742" transform="matrix(-0.7071 0.7071 -0.7071 -0.7071 -3882.0894 66.9243)" fill="#F0EFEF" width="492.605" height="0.393"/>
		
			<rect x="-2193.334" y="-770.742" transform="matrix(-0.7071 0.7071 -0.7071 -0.7071 -3868.6487 61.3538)" fill="#F0EFEF" width="492.606" height="0.394"/>
		
			<rect x="-2185.459" y="-770.742" transform="matrix(-0.7071 0.7071 -0.7071 -0.7071 -3855.2053 55.7853)" fill="#F0EFEF" width="492.606" height="0.394"/>
		
			<rect x="-2177.584" y="-770.743" transform="matrix(-0.7071 0.7071 -0.7071 -0.7071 -3841.7627 50.2172)" fill="#F0EFEF" width="492.606" height="0.394"/>
		
			<rect x="-2169.71" y="-770.743" transform="matrix(-0.7071 0.7071 -0.7071 -0.7071 -3828.321 44.6464)" fill="#F0EFEF" width="492.607" height="0.394"/>
		
			<rect x="-2161.835" y="-770.742" transform="matrix(-0.7071 0.7071 -0.7071 -0.7071 -3814.8765 39.0807)" fill="#F0EFEF" width="492.606" height="0.394"/>
		
			<rect x="-2153.96" y="-770.742" transform="matrix(-0.7071 0.7071 -0.7071 -0.7071 -3801.4331 33.5122)" fill="#F0EFEF" width="492.606" height="0.394"/>
		
			<rect x="-2146.085" y="-770.742" transform="matrix(-0.7071 0.7071 -0.7071 -0.7071 -3787.9895 27.9437)" fill="#F0EFEF" width="492.606" height="0.394"/>
		
			<rect x="-2138.21" y="-770.742" transform="matrix(-0.7071 0.7071 -0.7071 -0.7071 -3774.5457 22.3783)" fill="#F0EFEF" width="492.605" height="0.394"/>
		
			<rect x="-2130.336" y="-770.742" transform="matrix(-0.7071 0.7071 -0.7071 -0.7071 -3761.1042 16.8075)" fill="#F0EFEF" width="492.606" height="0.394"/>
		
			<rect x="-2122.461" y="-770.742" transform="matrix(-0.7071 0.7071 -0.7071 -0.7071 -3747.6609 11.239)" fill="#F0EFEF" width="492.606" height="0.394"/>
		
			<rect x="-2114.586" y="-770.743" transform="matrix(-0.7071 0.7071 -0.7071 -0.7071 -3734.2183 5.6709)" fill="#F0EFEF" width="492.606" height="0.394"/>
		
			<rect x="-2106.712" y="-770.742" transform="matrix(-0.7071 0.7071 -0.7071 -0.7071 -3720.7754 0.1028)" fill="#F0EFEF" width="492.606" height="0.394"/>
		
			<rect x="-2098.837" y="-770.742" transform="matrix(-0.7071 0.7071 -0.7071 -0.7071 -3707.332 -5.4657)" fill="#F0EFEF" width="492.606" height="0.394"/>
		
			<rect x="-2090.962" y="-770.742" transform="matrix(-0.7071 0.7071 -0.7071 -0.7071 -3693.8887 -11.0341)" fill="#F0EFEF" width="492.606" height="0.394"/>
		
			<rect x="-2083.087" y="-770.742" transform="matrix(-0.7071 0.7071 -0.7071 -0.7071 -3680.4441 -16.5999)" fill="#F0EFEF" width="492.605" height="0.393"/>
		
			<rect x="-2075.213" y="-770.742" transform="matrix(-0.7071 0.7071 -0.7071 -0.7071 -3667.0034 -22.1704)" fill="#F0EFEF" width="492.606" height="0.394"/>
		
			<rect x="-2067.338" y="-770.742" transform="matrix(-0.7071 0.7071 -0.7071 -0.7071 -3653.5598 -27.7388)" fill="#F0EFEF" width="492.606" height="0.394"/>
		
			<rect x="-2059.463" y="-770.742" transform="matrix(-0.7071 0.7071 -0.7071 -0.7071 -3640.1165 -33.3073)" fill="#F0EFEF" width="492.606" height="0.394"/>
		
			<rect x="-2051.589" y="-770.743" transform="matrix(-0.7071 0.7071 -0.7071 -0.7071 -3626.6755 -38.8777)" fill="#F0EFEF" width="492.607" height="0.394"/>
		
			<rect x="-2043.714" y="-770.742" transform="matrix(-0.7071 0.7071 -0.7071 -0.7071 -3613.2312 -44.4435)" fill="#F0EFEF" width="492.606" height="0.394"/>
		
			<rect x="-2035.839" y="-770.742" transform="matrix(-0.7071 0.7071 -0.7071 -0.7071 -3599.7876 -50.012)" fill="#F0EFEF" width="492.606" height="0.394"/>
		
			<rect x="-2027.964" y="-770.742" transform="matrix(-0.7071 0.7071 -0.7071 -0.7071 -3586.3442 -55.5804)" fill="#F0EFEF" width="492.606" height="0.394"/>
		
			<rect x="-2020.089" y="-770.742" transform="matrix(-0.7071 0.7071 -0.7071 -0.7071 -3572.9004 -61.146)" fill="#F0EFEF" width="492.605" height="0.394"/>
		
			<rect x="-2012.215" y="-770.742" transform="matrix(-0.7071 0.7071 -0.7071 -0.7071 -3559.459 -66.7167)" fill="#F0EFEF" width="492.606" height="0.394"/>
		
			<rect x="-2004.34" y="-770.742" transform="matrix(-0.7071 0.7071 -0.7071 -0.7071 -3546.0154 -72.2851)" fill="#F0EFEF" width="492.606" height="0.394"/>
		
			<rect x="-1996.465" y="-770.743" transform="matrix(-0.7071 0.7071 -0.7071 -0.7071 -3532.5728 -77.8532)" fill="#F0EFEF" width="492.606" height="0.394"/>
		
			<rect x="-1988.591" y="-770.743" transform="matrix(-0.7071 0.7071 -0.7071 -0.7071 -3519.1309 -83.4235)" fill="#F0EFEF" width="492.607" height="0.394"/>
		
			<rect x="-1980.716" y="-770.742" transform="matrix(-0.7071 0.7071 -0.7071 -0.7071 -3505.6868 -88.9898)" fill="#F0EFEF" width="492.606" height="0.394"/>
		
			<rect x="-1972.841" y="-770.742" transform="matrix(-0.7071 0.7071 -0.7071 -0.7071 -3492.2432 -94.5583)" fill="#F0EFEF" width="492.606" height="0.394"/>
		
			<rect x="-1964.966" y="-770.742" transform="matrix(-0.7071 0.7071 -0.7071 -0.7071 -3478.7988 -100.1242)" fill="#F0EFEF" width="492.605" height="0.393"/>
		
			<rect x="-1957.091" y="-770.742" transform="matrix(-0.7071 0.7071 -0.7071 -0.7071 -3465.3562 -105.6924)" fill="#F0EFEF" width="492.605" height="0.394"/>
		
			<rect x="-1949.217" y="-770.742" transform="matrix(-0.7071 0.7071 -0.7071 -0.7071 -3451.9146 -111.263)" fill="#F0EFEF" width="492.606" height="0.394"/>
		
			<rect x="-1941.342" y="-770.742" transform="matrix(-0.7071 0.7071 -0.7071 -0.7071 -3438.4709 -116.8315)" fill="#F0EFEF" width="492.606" height="0.394"/>
		
			<rect x="-1933.468" y="-770.743" transform="matrix(-0.7071 0.7071 -0.7071 -0.7071 -3425.03 -122.4017)" fill="#F0EFEF" width="492.607" height="0.394"/>
		
			<rect x="-1925.593" y="-770.742" transform="matrix(-0.7071 0.7071 -0.7071 -0.7071 -3411.5857 -127.9677)" fill="#F0EFEF" width="492.606" height="0.394"/>
		
			<rect x="-1917.718" y="-770.742" transform="matrix(-0.7071 0.7071 -0.7071 -0.7071 -3398.1423 -133.5361)" fill="#F0EFEF" width="492.606" height="0.394"/>
	</g>
	<g>
		
			<rect x="-1908.457" y="-770.742" transform="matrix(-0.7071 0.7071 -0.7071 -0.7071 -3382.3333 -140.0845)" fill="#F0EFEF" width="492.606" height="0.394"/>
		
			<rect x="-1900.582" y="-770.742" transform="matrix(-0.7071 0.7071 -0.7071 -0.7071 -3368.8896 -145.6529)" fill="#F0EFEF" width="492.606" height="0.394"/>
		
			<rect x="-1892.708" y="-770.743" transform="matrix(-0.7071 0.7071 -0.7071 -0.7071 -3355.4487 -151.2227)" fill="#F0EFEF" width="492.607" height="0.394"/>
		
			<rect x="-1884.833" y="-770.742" transform="matrix(-0.7071 0.7071 -0.7071 -0.7071 -3342.0044 -156.7892)" fill="#F0EFEF" width="492.606" height="0.394"/>
		
			<rect x="-1876.958" y="-770.742" transform="matrix(-0.7071 0.7071 -0.7071 -0.7071 -3328.561 -162.3576)" fill="#F0EFEF" width="492.606" height="0.394"/>
		
			<rect x="-1869.083" y="-770.742" transform="matrix(-0.7071 0.7071 -0.7071 -0.7071 -3315.1174 -167.9261)" fill="#F0EFEF" width="492.606" height="0.394"/>
		
			<rect x="-1861.208" y="-770.742" transform="matrix(-0.7071 0.7071 -0.7071 -0.7071 -3301.6731 -173.4921)" fill="#F0EFEF" width="492.605" height="0.393"/>
		
			<rect x="-1853.334" y="-770.742" transform="matrix(-0.7071 0.7071 -0.7071 -0.7071 -3288.2322 -179.0623)" fill="#F0EFEF" width="492.606" height="0.394"/>
		
			<rect x="-1845.459" y="-770.742" transform="matrix(-0.7071 0.7071 -0.7071 -0.7071 -3274.7888 -184.6308)" fill="#F0EFEF" width="492.606" height="0.394"/>
		
			<rect x="-1837.585" y="-770.743" transform="matrix(-0.7071 0.7071 -0.7071 -0.7071 -3261.3462 -190.1989)" fill="#F0EFEF" width="492.606" height="0.394"/>
		
			<rect x="-1829.71" y="-770.743" transform="matrix(-0.7071 0.7071 -0.7071 -0.7071 -3247.9043 -195.7694)" fill="#F0EFEF" width="492.607" height="0.394"/>
		
			<rect x="-1821.835" y="-770.742" transform="matrix(-0.7071 0.7071 -0.7071 -0.7071 -3234.46 -201.3355)" fill="#F0EFEF" width="492.606" height="0.394"/>
		
			<rect x="-1813.96" y="-770.742" transform="matrix(-0.7071 0.7071 -0.7071 -0.7071 -3221.0166 -206.9039)" fill="#F0EFEF" width="492.606" height="0.394"/>
		
			<rect x="-1806.085" y="-770.742" transform="matrix(-0.7071 0.7071 -0.7071 -0.7071 -3207.573 -212.4724)" fill="#F0EFEF" width="492.606" height="0.394"/>
		
			<rect x="-1798.21" y="-770.742" transform="matrix(-0.7071 0.7071 -0.7071 -0.7071 -3194.1296 -218.0382)" fill="#F0EFEF" width="492.605" height="0.394"/>
		
			<rect x="-1790.336" y="-770.742" transform="matrix(-0.7071 0.7071 -0.7071 -0.7071 -3180.6877 -223.6086)" fill="#F0EFEF" width="492.606" height="0.394"/>
		
			<rect x="-1782.461" y="-770.742" transform="matrix(-0.7071 0.7071 -0.7071 -0.7071 -3167.2444 -229.1771)" fill="#F0EFEF" width="492.606" height="0.394"/>
		
			<rect x="-1774.587" y="-770.743" transform="matrix(-0.7071 0.7071 -0.7071 -0.7071 -3153.8018 -234.7452)" fill="#F0EFEF" width="492.606" height="0.394"/>
		
			<rect x="-1766.712" y="-770.742" transform="matrix(-0.7071 0.7071 -0.7071 -0.7071 -3140.3591 -240.3133)" fill="#F0EFEF" width="492.606" height="0.394"/>
		
			<rect x="-1758.837" y="-770.742" transform="matrix(-0.7071 0.7071 -0.7071 -0.7071 -3126.9155 -245.8818)" fill="#F0EFEF" width="492.606" height="0.394"/>
		
			<rect x="-1750.962" y="-770.742" transform="matrix(-0.7071 0.7071 -0.7071 -0.7071 -3113.4722 -251.4503)" fill="#F0EFEF" width="492.606" height="0.394"/>
		
			<rect x="-1743.087" y="-770.742" transform="matrix(-0.7071 0.7071 -0.7071 -0.7071 -3100.0278 -257.0164)" fill="#F0EFEF" width="492.605" height="0.393"/>
		
			<rect x="-1735.213" y="-770.742" transform="matrix(-0.7071 0.7071 -0.7071 -0.7071 -3086.5869 -262.5865)" fill="#F0EFEF" width="492.606" height="0.394"/>
		
			<rect x="-1727.338" y="-770.742" transform="matrix(-0.7071 0.7071 -0.7071 -0.7071 -3073.1433 -268.1549)" fill="#F0EFEF" width="492.606" height="0.394"/>
		
			<rect x="-1719.463" y="-770.742" transform="matrix(-0.7071 0.7071 -0.7071 -0.7071 -3059.7 -273.7234)" fill="#F0EFEF" width="492.606" height="0.394"/>
		
			<rect x="-1711.589" y="-770.743" transform="matrix(-0.7071 0.7071 -0.7071 -0.7071 -3046.2588 -279.2935)" fill="#F0EFEF" width="492.607" height="0.394"/>
		
			<rect x="-1703.714" y="-770.742" transform="matrix(-0.7071 0.7071 -0.7071 -0.7071 -3032.8147 -284.8596)" fill="#F0EFEF" width="492.606" height="0.394"/>
		
			<rect x="-1695.839" y="-770.742" transform="matrix(-0.7071 0.7071 -0.7071 -0.7071 -3019.3711 -290.4281)" fill="#F0EFEF" width="492.606" height="0.394"/>
		
			<rect x="-1687.964" y="-770.742" transform="matrix(-0.7071 0.7071 -0.7071 -0.7071 -3005.9277 -295.9966)" fill="#F0EFEF" width="492.606" height="0.394"/>
		
			<rect x="-1680.089" y="-770.742" transform="matrix(-0.7071 0.7071 -0.7071 -0.7071 -2992.4844 -301.5625)" fill="#F0EFEF" width="492.605" height="0.394"/>
		
			<rect x="-1672.215" y="-770.742" transform="matrix(-0.7071 0.7071 -0.7071 -0.7071 -2979.0425 -307.1328)" fill="#F0EFEF" width="492.606" height="0.394"/>
		
			<rect x="-1664.34" y="-770.742" transform="matrix(-0.7071 0.7071 -0.7071 -0.7071 -2965.5989 -312.7013)" fill="#F0EFEF" width="492.606" height="0.394"/>
		
			<rect x="-1656.465" y="-770.743" transform="matrix(-0.7071 0.7071 -0.7071 -0.7071 -2952.1562 -318.2694)" fill="#F0EFEF" width="492.606" height="0.394"/>
		
			<rect x="-1648.591" y="-770.743" transform="matrix(-0.7071 0.7071 -0.7071 -0.7071 -2938.7141 -323.8393)" fill="#F0EFEF" width="492.607" height="0.394"/>
		
			<rect x="-1640.716" y="-770.742" transform="matrix(-0.7071 0.7071 -0.7071 -0.7071 -2925.2703 -329.406)" fill="#F0EFEF" width="492.606" height="0.394"/>
		
			<rect x="-1632.841" y="-770.742" transform="matrix(-0.7071 0.7071 -0.7071 -0.7071 -2911.8267 -334.9744)" fill="#F0EFEF" width="492.606" height="0.394"/>
		
			<rect x="-1624.966" y="-770.742" transform="matrix(-0.7071 0.7071 -0.7071 -0.7071 -2898.3826 -340.5407)" fill="#F0EFEF" width="492.605" height="0.393"/>
		
			<rect x="-1617.091" y="-770.742" transform="matrix(-0.7071 0.7071 -0.7071 -0.7071 -2884.9399 -346.1088)" fill="#F0EFEF" width="492.605" height="0.394"/>
		
			<rect x="-1609.217" y="-770.742" transform="matrix(-0.7071 0.7071 -0.7071 -0.7071 -2871.498 -351.6791)" fill="#F0EFEF" width="492.606" height="0.394"/>
		
			<rect x="-1601.342" y="-770.742" transform="matrix(-0.7071 0.7071 -0.7071 -0.7071 -2858.0544 -357.2476)" fill="#F0EFEF" width="492.606" height="0.394"/>
		
			<rect x="-1593.468" y="-770.743" transform="matrix(-0.7071 0.7071 -0.7071 -0.7071 -2844.6133 -362.8175)" fill="#F0EFEF" width="492.607" height="0.394"/>
		
			<rect x="-1585.593" y="-770.742" transform="matrix(-0.7071 0.7071 -0.7071 -0.7071 -2831.1692 -368.3838)" fill="#F0EFEF" width="492.606" height="0.394"/>
		
			<rect x="-1577.718" y="-770.742" transform="matrix(-0.7071 0.7071 -0.7071 -0.7071 -2817.7258 -373.9523)" fill="#F0EFEF" width="492.606" height="0.394"/>
	</g>
	<g>
		
			<rect x="-1568.457" y="-770.742" transform="matrix(-0.7071 0.7071 -0.7071 -0.7071 -2801.9167 -380.5005)" fill="#F0EFEF" width="492.606" height="0.394"/>
		
			<rect x="-1560.582" y="-770.742" transform="matrix(-0.7071 0.7071 -0.7071 -0.7071 -2788.4734 -386.069)" fill="#F0EFEF" width="492.606" height="0.394"/>
		
			<rect x="-1552.708" y="-770.743" transform="matrix(-0.7071 0.7071 -0.7071 -0.7071 -2775.0317 -391.6386)" fill="#F0EFEF" width="492.607" height="0.394"/>
		
			<rect x="-1544.833" y="-770.742" transform="matrix(-0.7071 0.7071 -0.7071 -0.7071 -2761.5879 -397.2053)" fill="#F0EFEF" width="492.606" height="0.394"/>
		
			<rect x="-1536.958" y="-770.742" transform="matrix(-0.7071 0.7071 -0.7071 -0.7071 -2748.1445 -402.7738)" fill="#F0EFEF" width="492.606" height="0.394"/>
		
			<rect x="-1529.083" y="-770.742" transform="matrix(-0.7071 0.7071 -0.7071 -0.7071 -2734.7009 -408.3422)" fill="#F0EFEF" width="492.606" height="0.394"/>
		
			<rect x="-1521.208" y="-770.742" transform="matrix(-0.7071 0.7071 -0.7071 -0.7071 -2721.2571 -413.9086)" fill="#F0EFEF" width="492.605" height="0.393"/>
		
			<rect x="-1513.334" y="-770.742" transform="matrix(-0.7071 0.7071 -0.7071 -0.7071 -2707.8157 -419.4785)" fill="#F0EFEF" width="492.606" height="0.394"/>
		
			<rect x="-1505.459" y="-770.742" transform="matrix(-0.7071 0.7071 -0.7071 -0.7071 -2694.3723 -425.0469)" fill="#F0EFEF" width="492.606" height="0.394"/>
		
			<rect x="-1497.585" y="-770.743" transform="matrix(-0.7071 0.7071 -0.7071 -0.7071 -2680.9297 -430.615)" fill="#F0EFEF" width="492.606" height="0.394"/>
		
			<rect x="-1489.71" y="-770.743" transform="matrix(-0.7071 0.7071 -0.7071 -0.7071 -2667.4875 -436.1852)" fill="#F0EFEF" width="492.607" height="0.394"/>
		
			<rect x="-1481.835" y="-770.742" transform="matrix(-0.7071 0.7071 -0.7071 -0.7071 -2654.0435 -441.7516)" fill="#F0EFEF" width="492.606" height="0.394"/>
		
			<rect x="-1473.96" y="-770.742" transform="matrix(-0.7071 0.7071 -0.7071 -0.7071 -2640.6001 -447.3201)" fill="#F0EFEF" width="492.606" height="0.394"/>
		
			<rect x="-1466.085" y="-770.742" transform="matrix(-0.7071 0.7071 -0.7071 -0.7071 -2627.1565 -452.8885)" fill="#F0EFEF" width="492.606" height="0.394"/>
		
			<rect x="-1458.21" y="-770.742" transform="matrix(-0.7071 0.7071 -0.7071 -0.7071 -2613.7136 -458.4546)" fill="#F0EFEF" width="492.605" height="0.394"/>
		
			<rect x="-1450.336" y="-770.742" transform="matrix(-0.7071 0.7071 -0.7071 -0.7071 -2600.2715 -464.0247)" fill="#F0EFEF" width="492.606" height="0.394"/>
		
			<rect x="-1442.461" y="-770.742" transform="matrix(-0.7071 0.7071 -0.7071 -0.7071 -2586.8279 -469.5932)" fill="#F0EFEF" width="492.606" height="0.394"/>
		
			<rect x="-1434.587" y="-770.743" transform="matrix(-0.7071 0.7071 -0.7071 -0.7071 -2573.3853 -475.1613)" fill="#F0EFEF" width="492.606" height="0.394"/>
		
			<rect x="-1426.712" y="-770.742" transform="matrix(-0.7071 0.7071 -0.7071 -0.7071 -2559.9426 -480.7295)" fill="#F0EFEF" width="492.606" height="0.394"/>
		
			<rect x="-1418.837" y="-770.742" transform="matrix(-0.7071 0.7071 -0.7071 -0.7071 -2546.499 -486.2979)" fill="#F0EFEF" width="492.606" height="0.394"/>
		
			<rect x="-1410.962" y="-770.742" transform="matrix(-0.7071 0.7071 -0.7071 -0.7071 -2533.0557 -491.8664)" fill="#F0EFEF" width="492.606" height="0.394"/>
		
			<rect x="-1403.087" y="-770.742" transform="matrix(-0.7071 0.7071 -0.7071 -0.7071 -2519.6118 -497.4329)" fill="#F0EFEF" width="492.605" height="0.393"/>
		
			<rect x="-1395.213" y="-770.742" transform="matrix(-0.7071 0.7071 -0.7071 -0.7071 -2506.1704 -503.0026)" fill="#F0EFEF" width="492.606" height="0.394"/>
		
			<rect x="-1387.338" y="-770.742" transform="matrix(-0.7071 0.7071 -0.7071 -0.7071 -2492.7268 -508.5711)" fill="#F0EFEF" width="492.606" height="0.394"/>
		
			<rect x="-1379.463" y="-770.742" transform="matrix(-0.7071 0.7071 -0.7071 -0.7071 -2479.2834 -514.1395)" fill="#F0EFEF" width="492.606" height="0.394"/>
		
			<rect x="-1371.589" y="-770.743" transform="matrix(-0.7071 0.7071 -0.7071 -0.7071 -2465.842 -519.7092)" fill="#F0EFEF" width="492.607" height="0.394"/>
		
			<rect x="-1363.714" y="-770.742" transform="matrix(-0.7071 0.7071 -0.7071 -0.7071 -2452.3982 -525.2758)" fill="#F0EFEF" width="492.606" height="0.394"/>
		
			<rect x="-1355.839" y="-770.742" transform="matrix(-0.7071 0.7071 -0.7071 -0.7071 -2438.9546 -530.8442)" fill="#F0EFEF" width="492.606" height="0.394"/>
		
			<rect x="-1347.964" y="-770.742" transform="matrix(-0.7071 0.7071 -0.7071 -0.7071 -2425.5112 -536.4127)" fill="#F0EFEF" width="492.606" height="0.394"/>
		
			<rect x="-1340.089" y="-770.742" transform="matrix(-0.7071 0.7071 -0.7071 -0.7071 -2412.0681 -541.9789)" fill="#F0EFEF" width="492.605" height="0.394"/>
		
			<rect x="-1332.215" y="-770.742" transform="matrix(-0.7071 0.7071 -0.7071 -0.7071 -2398.626 -547.549)" fill="#F0EFEF" width="492.606" height="0.394"/>
		
			<rect x="-1324.34" y="-770.742" transform="matrix(-0.7071 0.7071 -0.7071 -0.7071 -2385.1824 -553.1174)" fill="#F0EFEF" width="492.606" height="0.394"/>
		
			<rect x="-1316.465" y="-770.743" transform="matrix(-0.7071 0.7071 -0.7071 -0.7071 -2371.74 -558.6855)" fill="#F0EFEF" width="492.606" height="0.394"/>
		
			<rect x="-1308.591" y="-770.743" transform="matrix(-0.7071 0.7071 -0.7071 -0.7071 -2358.2974 -564.2555)" fill="#F0EFEF" width="492.607" height="0.394"/>
		
			<rect x="-1300.716" y="-770.742" transform="matrix(-0.7071 0.7071 -0.7071 -0.7071 -2344.8538 -569.8221)" fill="#F0EFEF" width="492.606" height="0.394"/>
		
			<rect x="-1292.841" y="-770.742" transform="matrix(-0.7071 0.7071 -0.7071 -0.7071 -2331.4102 -575.3906)" fill="#F0EFEF" width="492.606" height="0.394"/>
		
			<rect x="-1284.966" y="-770.742" transform="matrix(-0.7071 0.7071 -0.7071 -0.7071 -2317.9666 -580.9572)" fill="#F0EFEF" width="492.605" height="0.393"/>
		
			<rect x="-1277.091" y="-770.742" transform="matrix(-0.7071 0.7071 -0.7071 -0.7071 -2304.5237 -586.5253)" fill="#F0EFEF" width="492.605" height="0.394"/>
		
			<rect x="-1269.217" y="-770.742" transform="matrix(-0.7071 0.7071 -0.7071 -0.7071 -2291.0815 -592.0953)" fill="#F0EFEF" width="492.606" height="0.394"/>
		
			<rect x="-1261.342" y="-770.742" transform="matrix(-0.7071 0.7071 -0.7071 -0.7071 -2277.6379 -597.6637)" fill="#F0EFEF" width="492.606" height="0.394"/>
		
			<rect x="-1253.468" y="-770.743" transform="matrix(-0.7071 0.7071 -0.7071 -0.7071 -2264.1965 -603.2333)" fill="#F0EFEF" width="492.607" height="0.394"/>
		
			<rect x="-1245.593" y="-770.742" transform="matrix(-0.7071 0.7071 -0.7071 -0.7071 -2250.7527 -608.7999)" fill="#F0EFEF" width="492.606" height="0.394"/>
		
			<rect x="-1237.718" y="-770.742" transform="matrix(-0.7071 0.7071 -0.7071 -0.7071 -2237.3093 -614.3684)" fill="#F0EFEF" width="492.606" height="0.394"/>
	</g>
	<g>
		
			<rect x="-1228.457" y="-770.742" transform="matrix(-0.7071 0.7071 -0.7071 -0.7071 -2221.5002 -620.9167)" fill="#F0EFEF" width="492.606" height="0.394"/>
		
			<rect x="-1220.582" y="-770.742" transform="matrix(-0.7071 0.7071 -0.7071 -0.7071 -2208.0569 -626.4852)" fill="#F0EFEF" width="492.606" height="0.394"/>
		
			<rect x="-1212.708" y="-770.743" transform="matrix(-0.7071 0.7071 -0.7071 -0.7071 -2194.6152 -632.0547)" fill="#F0EFEF" width="492.607" height="0.394"/>
		
			<rect x="-1204.833" y="-770.742" transform="matrix(-0.7071 0.7071 -0.7071 -0.7071 -2181.1714 -637.6215)" fill="#F0EFEF" width="492.606" height="0.394"/>
		
			<rect x="-1196.958" y="-770.742" transform="matrix(-0.7071 0.7071 -0.7071 -0.7071 -2167.728 -643.1899)" fill="#F0EFEF" width="492.606" height="0.394"/>
		
			<rect x="-1189.083" y="-770.742" transform="matrix(-0.7071 0.7071 -0.7071 -0.7071 -2154.2844 -648.7584)" fill="#F0EFEF" width="492.606" height="0.394"/>
		
			<rect x="-1181.208" y="-770.742" transform="matrix(-0.7071 0.7071 -0.7071 -0.7071 -2140.8408 -654.3251)" fill="#F0EFEF" width="492.605" height="0.393"/>
		
			<rect x="-1173.334" y="-770.742" transform="matrix(-0.7071 0.7071 -0.7071 -0.7071 -2127.3992 -659.8946)" fill="#F0EFEF" width="492.606" height="0.394"/>
		
			<rect x="-1165.459" y="-770.742" transform="matrix(-0.7071 0.7071 -0.7071 -0.7071 -2113.9558 -665.4631)" fill="#F0EFEF" width="492.606" height="0.394"/>
		
			<rect x="-1157.585" y="-770.743" transform="matrix(-0.7071 0.7071 -0.7071 -0.7071 -2100.5132 -671.0312)" fill="#F0EFEF" width="492.606" height="0.394"/>
		
			<rect x="-1149.71" y="-770.743" transform="matrix(-0.7071 0.7071 -0.7071 -0.7071 -2087.0706 -676.601)" fill="#F0EFEF" width="492.607" height="0.394"/>
		
			<rect x="-1141.835" y="-770.742" transform="matrix(-0.7071 0.7071 -0.7071 -0.7071 -2073.627 -682.1677)" fill="#F0EFEF" width="492.606" height="0.394"/>
		
			<rect x="-1133.96" y="-770.742" transform="matrix(-0.7071 0.7071 -0.7071 -0.7071 -2060.1836 -687.7362)" fill="#F0EFEF" width="492.606" height="0.394"/>
		
			<rect x="-1126.085" y="-770.742" transform="matrix(-0.7071 0.7071 -0.7071 -0.7071 -2046.7401 -693.3047)" fill="#F0EFEF" width="492.606" height="0.394"/>
		
			<rect x="-1118.21" y="-770.742" transform="matrix(-0.7071 0.7071 -0.7071 -0.7071 -2033.2974 -698.8711)" fill="#F0EFEF" width="492.605" height="0.394"/>
		
			<rect x="-1110.336" y="-770.742" transform="matrix(-0.7071 0.7071 -0.7071 -0.7071 -2019.855 -704.4409)" fill="#F0EFEF" width="492.606" height="0.394"/>
		
			<rect x="-1102.461" y="-770.742" transform="matrix(-0.7071 0.7071 -0.7071 -0.7071 -2006.4115 -710.0093)" fill="#F0EFEF" width="492.606" height="0.394"/>
		
			<rect x="-1094.587" y="-770.743" transform="matrix(-0.7071 0.7071 -0.7071 -0.7071 -1992.9689 -715.5775)" fill="#F0EFEF" width="492.606" height="0.394"/>
		
			<rect x="-1086.712" y="-770.742" transform="matrix(-0.7071 0.7071 -0.7071 -0.7071 -1979.5261 -721.1456)" fill="#F0EFEF" width="492.606" height="0.394"/>
		
			<rect x="-1078.837" y="-770.742" transform="matrix(-0.7071 0.7071 -0.7071 -0.7071 -1966.0826 -726.7141)" fill="#F0EFEF" width="492.606" height="0.394"/>
		
			<rect x="-1070.962" y="-770.742" transform="matrix(-0.7071 0.7071 -0.7071 -0.7071 -1952.6392 -732.2825)" fill="#F0EFEF" width="492.606" height="0.394"/>
		
			<rect x="-1063.087" y="-770.742" transform="matrix(-0.7071 0.7071 -0.7071 -0.7071 -1939.1957 -737.8494)" fill="#F0EFEF" width="492.605" height="0.393"/>
		
			<rect x="-1055.213" y="-770.742" transform="matrix(-0.7071 0.7071 -0.7071 -0.7071 -1925.7539 -743.4188)" fill="#F0EFEF" width="492.606" height="0.394"/>
		
			<rect x="-1047.338" y="-770.742" transform="matrix(-0.7071 0.7071 -0.7071 -0.7071 -1912.3104 -748.9872)" fill="#F0EFEF" width="492.606" height="0.394"/>
		
			<rect x="-1039.463" y="-770.742" transform="matrix(-0.7071 0.7071 -0.7071 -0.7071 -1898.8669 -754.5557)" fill="#F0EFEF" width="492.606" height="0.394"/>
		
			<rect x="-1031.589" y="-770.743" transform="matrix(-0.7071 0.7071 -0.7071 -0.7071 -1885.4252 -760.125)" fill="#F0EFEF" width="492.607" height="0.394"/>
		
			<rect x="-1023.714" y="-770.742" transform="matrix(-0.7071 0.7071 -0.7071 -0.7071 -1871.9817 -765.6919)" fill="#F0EFEF" width="492.606" height="0.394"/>
		
			<rect x="-1015.839" y="-770.742" transform="matrix(-0.7071 0.7071 -0.7071 -0.7071 -1858.5382 -771.2604)" fill="#F0EFEF" width="492.606" height="0.394"/>
		
			<rect x="-1007.964" y="-770.742" transform="matrix(-0.7071 0.7071 -0.7071 -0.7071 -1845.0947 -776.8289)" fill="#F0EFEF" width="492.606" height="0.394"/>
		
			<rect x="-1000.089" y="-770.742" transform="matrix(-0.7071 0.7071 -0.7071 -0.7071 -1831.6521 -782.3954)" fill="#F0EFEF" width="492.605" height="0.394"/>
		
			<rect x="-992.215" y="-770.742" transform="matrix(-0.7071 0.7071 -0.7071 -0.7071 -1818.2095 -787.965)" fill="#F0EFEF" width="492.606" height="0.394"/>
		
			<rect x="-984.34" y="-770.742" transform="matrix(-0.7071 0.7071 -0.7071 -0.7071 -1804.766 -793.5335)" fill="#F0EFEF" width="492.606" height="0.394"/>
		
			<rect x="-976.465" y="-770.743" transform="matrix(-0.7071 0.7071 -0.7071 -0.7071 -1791.3234 -799.1016)" fill="#F0EFEF" width="492.606" height="0.394"/>
		
			<rect x="-968.591" y="-770.743" transform="matrix(-0.7071 0.7071 -0.7071 -0.7071 -1777.8806 -804.671)" fill="#F0EFEF" width="492.607" height="0.394"/>
		
			<rect x="-960.716" y="-770.742" transform="matrix(-0.7071 0.7071 -0.7071 -0.7071 -1764.4373 -810.2382)" fill="#F0EFEF" width="492.606" height="0.394"/>
		
			<rect x="-952.841" y="-770.742" transform="matrix(-0.7071 0.7071 -0.7071 -0.7071 -1750.9938 -815.8067)" fill="#F0EFEF" width="492.606" height="0.394"/>
		
			<rect x="-944.966" y="-770.742" transform="matrix(-0.7071 0.7071 -0.7071 -0.7071 -1737.5504 -821.3737)" fill="#F0EFEF" width="492.605" height="0.393"/>
		
			<rect x="-937.091" y="-770.742" transform="matrix(-0.7071 0.7071 -0.7071 -0.7071 -1724.1077 -826.9418)" fill="#F0EFEF" width="492.605" height="0.394"/>
		
			<rect x="-929.217" y="-770.742" transform="matrix(-0.7071 0.7071 -0.7071 -0.7071 -1710.6649 -832.5114)" fill="#F0EFEF" width="492.606" height="0.394"/>
		
			<rect x="-921.342" y="-770.742" transform="matrix(-0.7071 0.7071 -0.7071 -0.7071 -1697.2214 -838.0799)" fill="#F0EFEF" width="492.606" height="0.394"/>
		
			<rect x="-913.468" y="-770.743" transform="matrix(-0.7071 0.7071 -0.7071 -0.7071 -1683.7797 -843.649)" fill="#F0EFEF" width="492.607" height="0.394"/>
		
			<rect x="-905.593" y="-770.742" transform="matrix(-0.7071 0.7071 -0.7071 -0.7071 -1670.3363 -849.2161)" fill="#F0EFEF" width="492.606" height="0.394"/>
		
			<rect x="-897.718" y="-770.742" transform="matrix(-0.7071 0.7071 -0.7071 -0.7071 -1656.8928 -854.7845)" fill="#F0EFEF" width="492.606" height="0.394"/>
	</g>
	<g>
		
			<rect x="-888.457" y="-770.742" transform="matrix(-0.7071 0.7071 -0.7071 -0.7071 -1641.0837 -861.3328)" fill="#F0EFEF" width="492.606" height="0.394"/>
		
			<rect x="-880.582" y="-770.742" transform="matrix(-0.7071 0.7071 -0.7071 -0.7071 -1627.6403 -866.9013)" fill="#F0EFEF" width="492.606" height="0.394"/>
		
			<rect x="-872.708" y="-770.743" transform="matrix(-0.7071 0.7071 -0.7071 -0.7071 -1614.1984 -872.4703)" fill="#F0EFEF" width="492.607" height="0.394"/>
		
			<rect x="-864.833" y="-770.742" transform="matrix(-0.7071 0.7071 -0.7071 -0.7071 -1600.755 -878.0375)" fill="#F0EFEF" width="492.606" height="0.394"/>
		
			<rect x="-856.958" y="-770.742" transform="matrix(-0.7071 0.7071 -0.7071 -0.7071 -1587.3115 -883.606)" fill="#F0EFEF" width="492.606" height="0.394"/>
		
			<rect x="-849.083" y="-770.742" transform="matrix(-0.7071 0.7071 -0.7071 -0.7071 -1573.868 -889.1745)" fill="#F0EFEF" width="492.606" height="0.394"/>
		
			<rect x="-841.208" y="-770.742" transform="matrix(-0.7071 0.7071 -0.7071 -0.7071 -1560.4248 -894.7416)" fill="#F0EFEF" width="492.605" height="0.393"/>
		
			<rect x="-833.334" y="-770.742" transform="matrix(-0.7071 0.7071 -0.7071 -0.7071 -1546.9827 -900.3107)" fill="#F0EFEF" width="492.606" height="0.394"/>
		
			<rect x="-825.459" y="-770.742" transform="matrix(-0.7071 0.7071 -0.7071 -0.7071 -1533.5392 -905.8792)" fill="#F0EFEF" width="492.606" height="0.394"/>
		
			<rect x="-817.585" y="-770.743" transform="matrix(-0.7071 0.7071 -0.7071 -0.7071 -1520.0967 -911.4473)" fill="#F0EFEF" width="492.606" height="0.394"/>
		
			<rect x="-809.71" y="-770.743" transform="matrix(-0.7071 0.7071 -0.7071 -0.7071 -1506.6538 -917.0168)" fill="#F0EFEF" width="492.607" height="0.394"/>
		
			<rect x="-801.835" y="-770.742" transform="matrix(-0.7071 0.7071 -0.7071 -0.7071 -1493.2106 -922.5839)" fill="#F0EFEF" width="492.606" height="0.394"/>
		
			<rect x="-793.96" y="-770.742" transform="matrix(-0.7071 0.7071 -0.7071 -0.7071 -1479.7671 -928.1523)" fill="#F0EFEF" width="492.606" height="0.394"/>
		
			<rect x="-786.085" y="-770.742" transform="matrix(-0.7071 0.7071 -0.7071 -0.7071 -1466.3236 -933.7208)" fill="#F0EFEF" width="492.606" height="0.394"/>
		
			<rect x="-778.21" y="-770.742" transform="matrix(-0.7071 0.7071 -0.7071 -0.7071 -1452.8812 -939.2876)" fill="#F0EFEF" width="492.605" height="0.394"/>
		
			<rect x="-770.336" y="-770.742" transform="matrix(-0.7071 0.7071 -0.7071 -0.7071 -1439.4384 -944.857)" fill="#F0EFEF" width="492.606" height="0.394"/>
		
			<rect x="-762.461" y="-770.742" transform="matrix(-0.7071 0.7071 -0.7071 -0.7071 -1425.9949 -950.4255)" fill="#F0EFEF" width="492.606" height="0.394"/>
		
			<rect x="-754.587" y="-770.743" transform="matrix(-0.7071 0.7071 -0.7071 -0.7071 -1412.5524 -955.9936)" fill="#F0EFEF" width="492.606" height="0.394"/>
		
			<rect x="-746.712" y="-770.742" transform="matrix(-0.7071 0.7071 -0.7071 -0.7071 -1399.1096 -961.5617)" fill="#F0EFEF" width="492.606" height="0.394"/>
		
			<rect x="-738.837" y="-770.742" transform="matrix(-0.7071 0.7071 -0.7071 -0.7071 -1385.6661 -967.1302)" fill="#F0EFEF" width="492.606" height="0.394"/>
		
			<rect x="-730.962" y="-770.742" transform="matrix(-0.7071 0.7071 -0.7071 -0.7071 -1372.2227 -972.6987)" fill="#F0EFEF" width="492.606" height="0.394"/>
		
			<rect x="-723.087" y="-770.742" transform="matrix(-0.7071 0.7071 -0.7071 -0.7071 -1358.7795 -978.2659)" fill="#F0EFEF" width="492.605" height="0.393"/>
		
			<rect x="-715.213" y="-770.742" transform="matrix(-0.7071 0.7071 -0.7071 -0.7071 -1345.3373 -983.8349)" fill="#F0EFEF" width="492.606" height="0.394"/>
		
			<rect x="-707.338" y="-770.742" transform="matrix(-0.7071 0.7071 -0.7071 -0.7071 -1331.8939 -989.4034)" fill="#F0EFEF" width="492.606" height="0.394"/>
		
			<rect x="-699.463" y="-770.742" transform="matrix(-0.7071 0.7071 -0.7071 -0.7071 -1318.4504 -994.9718)" fill="#F0EFEF" width="492.606" height="0.394"/>
		
			<rect x="-691.589" y="-770.743" transform="matrix(-0.7071 0.7071 -0.7071 -0.7071 -1305.0083 -1000.5408)" fill="#F0EFEF" width="492.607" height="0.394"/>
		
			<rect x="-683.714" y="-770.742" transform="matrix(-0.7071 0.7071 -0.7071 -0.7071 -1291.5652 -1006.108)" fill="#F0EFEF" width="492.606" height="0.394"/>
		
			<rect x="-675.839" y="-770.742" transform="matrix(-0.7071 0.7071 -0.7071 -0.7071 -1278.1217 -1011.6765)" fill="#F0EFEF" width="492.606" height="0.394"/>
		
			<rect x="-667.964" y="-770.742" transform="matrix(-0.7071 0.7071 -0.7071 -0.7071 -1264.6782 -1017.245)" fill="#F0EFEF" width="492.606" height="0.394"/>
		
			<rect x="-660.089" y="-770.742" transform="matrix(-0.7071 0.7071 -0.7071 -0.7071 -1251.236 -1022.8119)" fill="#F0EFEF" width="492.605" height="0.394"/>
		
			<rect x="-652.215" y="-770.742" transform="matrix(-0.7071 0.7071 -0.7071 -0.7071 -1237.793 -1028.3812)" fill="#F0EFEF" width="492.606" height="0.394"/>
		
			<rect x="-644.34" y="-770.742" transform="matrix(-0.7071 0.7071 -0.7071 -0.7071 -1224.3495 -1033.9497)" fill="#F0EFEF" width="492.606" height="0.394"/>
		
			<rect x="-636.465" y="-770.743" transform="matrix(-0.7071 0.7071 -0.7071 -0.7071 -1210.9069 -1039.5177)" fill="#F0EFEF" width="492.606" height="0.394"/>
		
			<rect x="-628.591" y="-770.743" transform="matrix(-0.7071 0.7071 -0.7071 -0.7071 -1197.4639 -1045.0869)" fill="#F0EFEF" width="492.607" height="0.394"/>
		
			<rect x="-620.716" y="-770.742" transform="matrix(-0.7071 0.7071 -0.7071 -0.7071 -1184.0208 -1050.6544)" fill="#F0EFEF" width="492.606" height="0.394"/>
		
			<rect x="-612.841" y="-770.742" transform="matrix(-0.7071 0.7071 -0.7071 -0.7071 -1170.5773 -1056.2228)" fill="#F0EFEF" width="492.606" height="0.394"/>
		
			<rect x="-604.966" y="-770.742" transform="matrix(-0.7071 0.7071 -0.7071 -0.7071 -1157.1342 -1061.7902)" fill="#F0EFEF" width="492.605" height="0.393"/>
		
			<rect x="-597.091" y="-770.742" transform="matrix(-0.7071 0.7071 -0.7071 -0.7071 -1143.6915 -1067.3583)" fill="#F0EFEF" width="492.605" height="0.394"/>
		
			<rect x="-589.217" y="-770.742" transform="matrix(-0.7071 0.7071 -0.7071 -0.7071 -1130.2485 -1072.9275)" fill="#F0EFEF" width="492.606" height="0.394"/>
		
			<rect x="-581.342" y="-770.742" transform="matrix(-0.7071 0.7071 -0.7071 -0.7071 -1116.8051 -1078.496)" fill="#F0EFEF" width="492.606" height="0.394"/>
		
			<rect x="-573.468" y="-770.743" transform="matrix(-0.7071 0.7071 -0.7071 -0.7071 -1103.3628 -1084.0648)" fill="#F0EFEF" width="492.607" height="0.394"/>
		
			<rect x="-565.593" y="-770.742" transform="matrix(-0.7071 0.7071 -0.7071 -0.7071 -1089.9198 -1089.6322)" fill="#F0EFEF" width="492.606" height="0.394"/>
		
			<rect x="-557.718" y="-770.742" transform="matrix(-0.7071 0.7071 -0.7071 -0.7071 -1076.4763 -1095.2007)" fill="#F0EFEF" width="492.606" height="0.394"/>
	</g>
	<rect x="-1932.392" y="-823" fill="none" width="1280" height="121"/>
</g>
<g opacity="0.7">
	<path fill-rule="evenodd" clip-rule="evenodd" fill="#FAFAFA" d="M16.44,2.942l-1.232,3.769c1.68,1.294,2.761,3.323,2.761,5.609
		c0,3.906-3.168,7.075-7.075,7.075c-3.909,0-7.077-3.169-7.077-7.075c0-2.33,1.123-4.395,2.86-5.687l-1.229-3.75
		C2.191,4.768,0,8.288,0,12.32c0,6.014,4.877,10.891,10.894,10.891c6.015,0,10.892-4.877,10.892-10.891
		C21.786,8.328,19.641,4.839,16.44,2.942z"/>
	<path fill-rule="evenodd" clip-rule="evenodd" fill="#FAFAFA" d="M12.608,11.098c0,0.829-0.682,1.902-1.373,1.902h-0.775
		c-0.691,0-0.851-1.073-0.851-1.902V1.51c0-0.83,0.16-1.51,0.851-1.51h0.775c0.691,0,1.373,0.68,1.373,1.51V11.098z"/>
</g>
</svg>
