<?xml version="1.0" encoding="utf-8"?>
<!-- Generator: Adobe Illustrator 17.0.0, SVG Export Plug-In . SVG Version: 6.00 Build 0)  -->
<!DOCTYPE svg PUBLIC "-//W3C//DTD SVG 1.1//EN" "http://www.w3.org/Graphics/SVG/1.1/DTD/svg11.dtd">
<svg version="1.1" id="Capa_1" xmlns="http://www.w3.org/2000/svg" xmlns:xlink="http://www.w3.org/1999/xlink" x="0px" y="0px"
	 width="22.37px" height="23.749px" viewBox="0 0 22.37 23.749" enable-background="new 0 0 22.37 23.749" xml:space="preserve">
<g>
	<g>
		
			<rect x="-2248.153" y="-770.8" transform="matrix(-0.7071 0.7071 -0.7071 -0.7071 -3962.2717 100.0186)" fill="#F0EFEF" width="492.606" height="0.394"/>
		
			<rect x="-2240.278" y="-770.8" transform="matrix(-0.7071 0.7071 -0.7071 -0.7071 -3948.8284 94.4501)" fill="#F0EFEF" width="492.606" height="0.394"/>
		
			<rect x="-2232.405" y="-770.8" transform="matrix(-0.7071 0.7071 -0.7071 -0.7071 -3935.3875 88.8801)" fill="#F0EFEF" width="492.607" height="0.394"/>
		
			<rect x="-2224.529" y="-770.8" transform="matrix(-0.7071 0.7071 -0.7071 -0.7071 -3921.9431 83.3139)" fill="#F0EFEF" width="492.606" height="0.394"/>
		
			<rect x="-2216.654" y="-770.8" transform="matrix(-0.7071 0.7071 -0.7071 -0.7071 -3908.4995 77.7455)" fill="#F0EFEF" width="492.606" height="0.394"/>
		
			<rect x="-2208.779" y="-770.8" transform="matrix(-0.7071 0.7071 -0.7071 -0.7071 -3895.0562 72.177)" fill="#F0EFEF" width="492.606" height="0.394"/>
		
			<rect x="-2200.904" y="-770.8" transform="matrix(-0.7071 0.7071 -0.7071 -0.7071 -3881.6116 66.6113)" fill="#F0EFEF" width="492.605" height="0.393"/>
		
			<rect x="-2193.03" y="-770.8" transform="matrix(-0.7071 0.7071 -0.7071 -0.7071 -3868.1709 61.0408)" fill="#F0EFEF" width="492.606" height="0.394"/>
		
			<rect x="-2185.155" y="-770.8" transform="matrix(-0.7071 0.7071 -0.7071 -0.7071 -3854.7273 55.4723)" fill="#F0EFEF" width="492.606" height="0.394"/>
		
			<rect x="-2177.281" y="-770.8" transform="matrix(-0.7071 0.7071 -0.7071 -0.7071 -3841.2847 49.9042)" fill="#F0EFEF" width="492.606" height="0.394"/>
		
			<rect x="-2169.407" y="-770.8" transform="matrix(-0.7071 0.7071 -0.7071 -0.7071 -3827.8433 44.3333)" fill="#F0EFEF" width="492.607" height="0.394"/>
		
			<rect x="-2161.531" y="-770.8" transform="matrix(-0.7071 0.7071 -0.7071 -0.7071 -3814.3987 38.7676)" fill="#F0EFEF" width="492.606" height="0.394"/>
		
			<rect x="-2153.656" y="-770.8" transform="matrix(-0.7071 0.7071 -0.7071 -0.7071 -3800.9551 33.1991)" fill="#F0EFEF" width="492.606" height="0.394"/>
		
			<rect x="-2145.781" y="-770.8" transform="matrix(-0.7071 0.7071 -0.7071 -0.7071 -3787.5117 27.6307)" fill="#F0EFEF" width="492.606" height="0.394"/>
		
			<rect x="-2137.906" y="-770.8" transform="matrix(-0.7071 0.7071 -0.7071 -0.7071 -3774.0679 22.0653)" fill="#F0EFEF" width="492.605" height="0.394"/>
		
			<rect x="-2130.032" y="-770.8" transform="matrix(-0.7071 0.7071 -0.7071 -0.7071 -3760.6265 16.4944)" fill="#F0EFEF" width="492.606" height="0.394"/>
		
			<rect x="-2122.157" y="-770.8" transform="matrix(-0.7071 0.7071 -0.7071 -0.7071 -3747.1829 10.926)" fill="#F0EFEF" width="492.606" height="0.394"/>
		
			<rect x="-2114.283" y="-770.8" transform="matrix(-0.7071 0.7071 -0.7071 -0.7071 -3733.7402 5.3579)" fill="#F0EFEF" width="492.606" height="0.394"/>
		
			<rect x="-2106.408" y="-770.8" transform="matrix(-0.7071 0.7071 -0.7071 -0.7071 -3720.2976 -0.2103)" fill="#F0EFEF" width="492.606" height="0.394"/>
		
			<rect x="-2098.533" y="-770.8" transform="matrix(-0.7071 0.7071 -0.7071 -0.7071 -3706.8542 -5.7787)" fill="#F0EFEF" width="492.606" height="0.394"/>
		
			<rect x="-2090.658" y="-770.8" transform="matrix(-0.7071 0.7071 -0.7071 -0.7071 -3693.4106 -11.3472)" fill="#F0EFEF" width="492.606" height="0.394"/>
		
			<rect x="-2082.783" y="-770.8" transform="matrix(-0.7071 0.7071 -0.7071 -0.7071 -3679.9663 -16.913)" fill="#F0EFEF" width="492.605" height="0.393"/>
		
			<rect x="-2074.909" y="-770.8" transform="matrix(-0.7071 0.7071 -0.7071 -0.7071 -3666.5254 -22.4834)" fill="#F0EFEF" width="492.606" height="0.394"/>
		
			<rect x="-2067.034" y="-770.8" transform="matrix(-0.7071 0.7071 -0.7071 -0.7071 -3653.082 -28.0519)" fill="#F0EFEF" width="492.606" height="0.394"/>
		
			<rect x="-2059.159" y="-770.8" transform="matrix(-0.7071 0.7071 -0.7071 -0.7071 -3639.6384 -33.6203)" fill="#F0EFEF" width="492.606" height="0.394"/>
		
			<rect x="-2051.286" y="-770.8" transform="matrix(-0.7071 0.7071 -0.7071 -0.7071 -3626.1978 -39.1907)" fill="#F0EFEF" width="492.607" height="0.394"/>
		
			<rect x="-2043.41" y="-770.8" transform="matrix(-0.7071 0.7071 -0.7071 -0.7071 -3612.7532 -44.7566)" fill="#F0EFEF" width="492.606" height="0.394"/>
		
			<rect x="-2035.535" y="-770.8" transform="matrix(-0.7071 0.7071 -0.7071 -0.7071 -3599.3098 -50.325)" fill="#F0EFEF" width="492.606" height="0.394"/>
		
			<rect x="-2027.66" y="-770.8" transform="matrix(-0.7071 0.7071 -0.7071 -0.7071 -3585.8662 -55.8935)" fill="#F0EFEF" width="492.606" height="0.394"/>
		
			<rect x="-2019.785" y="-770.8" transform="matrix(-0.7071 0.7071 -0.7071 -0.7071 -3572.4226 -61.459)" fill="#F0EFEF" width="492.605" height="0.394"/>
		
			<rect x="-2011.911" y="-770.8" transform="matrix(-0.7071 0.7071 -0.7071 -0.7071 -3558.981 -67.0297)" fill="#F0EFEF" width="492.606" height="0.394"/>
		
			<rect x="-2004.036" y="-770.8" transform="matrix(-0.7071 0.7071 -0.7071 -0.7071 -3545.5376 -72.5982)" fill="#F0EFEF" width="492.606" height="0.394"/>
		
			<rect x="-1996.162" y="-770.8" transform="matrix(-0.7071 0.7071 -0.7071 -0.7071 -3532.095 -78.1663)" fill="#F0EFEF" width="492.606" height="0.394"/>
		
			<rect x="-1988.287" y="-770.8" transform="matrix(-0.7071 0.7071 -0.7071 -0.7071 -3518.6531 -83.7365)" fill="#F0EFEF" width="492.607" height="0.394"/>
		
			<rect x="-1980.412" y="-770.8" transform="matrix(-0.7071 0.7071 -0.7071 -0.7071 -3505.2087 -89.3029)" fill="#F0EFEF" width="492.606" height="0.394"/>
		
			<rect x="-1972.537" y="-770.8" transform="matrix(-0.7071 0.7071 -0.7071 -0.7071 -3491.7654 -94.8713)" fill="#F0EFEF" width="492.606" height="0.394"/>
		
			<rect x="-1964.662" y="-770.8" transform="matrix(-0.7071 0.7071 -0.7071 -0.7071 -3478.321 -100.4373)" fill="#F0EFEF" width="492.605" height="0.393"/>
		
			<rect x="-1956.787" y="-770.8" transform="matrix(-0.7071 0.7071 -0.7071 -0.7071 -3464.8784 -106.0054)" fill="#F0EFEF" width="492.605" height="0.394"/>
		
			<rect x="-1948.913" y="-770.8" transform="matrix(-0.7071 0.7071 -0.7071 -0.7071 -3451.4365 -111.576)" fill="#F0EFEF" width="492.606" height="0.394"/>
		
			<rect x="-1941.038" y="-770.8" transform="matrix(-0.7071 0.7071 -0.7071 -0.7071 -3437.9932 -117.1445)" fill="#F0EFEF" width="492.606" height="0.394"/>
		
			<rect x="-1933.164" y="-770.8" transform="matrix(-0.7071 0.7071 -0.7071 -0.7071 -3424.5522 -122.7148)" fill="#F0EFEF" width="492.607" height="0.394"/>
		
			<rect x="-1925.289" y="-770.8" transform="matrix(-0.7071 0.7071 -0.7071 -0.7071 -3411.1079 -128.2807)" fill="#F0EFEF" width="492.606" height="0.394"/>
		
			<rect x="-1917.414" y="-770.8" transform="matrix(-0.7071 0.7071 -0.7071 -0.7071 -3397.6643 -133.8492)" fill="#F0EFEF" width="492.606" height="0.394"/>
	</g>
	<g>
		
			<rect x="-1908.153" y="-770.8" transform="matrix(-0.7071 0.7071 -0.7071 -0.7071 -3381.8552 -140.3975)" fill="#F0EFEF" width="492.606" height="0.394"/>
		
			<rect x="-1900.278" y="-770.8" transform="matrix(-0.7071 0.7071 -0.7071 -0.7071 -3368.4119 -145.966)" fill="#F0EFEF" width="492.606" height="0.394"/>
		
			<rect x="-1892.405" y="-770.8" transform="matrix(-0.7071 0.7071 -0.7071 -0.7071 -3354.9707 -151.5358)" fill="#F0EFEF" width="492.607" height="0.394"/>
		
			<rect x="-1884.529" y="-770.8" transform="matrix(-0.7071 0.7071 -0.7071 -0.7071 -3341.5266 -157.1022)" fill="#F0EFEF" width="492.606" height="0.394"/>
		
			<rect x="-1876.654" y="-770.8" transform="matrix(-0.7071 0.7071 -0.7071 -0.7071 -3328.083 -162.6707)" fill="#F0EFEF" width="492.606" height="0.394"/>
		
			<rect x="-1868.779" y="-770.8" transform="matrix(-0.7071 0.7071 -0.7071 -0.7071 -3314.6396 -168.2391)" fill="#F0EFEF" width="492.606" height="0.394"/>
		
			<rect x="-1860.904" y="-770.8" transform="matrix(-0.7071 0.7071 -0.7071 -0.7071 -3301.1953 -173.8052)" fill="#F0EFEF" width="492.605" height="0.393"/>
		
			<rect x="-1853.03" y="-770.8" transform="matrix(-0.7071 0.7071 -0.7071 -0.7071 -3287.7544 -179.3754)" fill="#F0EFEF" width="492.606" height="0.394"/>
		
			<rect x="-1845.155" y="-770.8" transform="matrix(-0.7071 0.7071 -0.7071 -0.7071 -3274.3108 -184.9438)" fill="#F0EFEF" width="492.606" height="0.394"/>
		
			<rect x="-1837.281" y="-770.8" transform="matrix(-0.7071 0.7071 -0.7071 -0.7071 -3260.8682 -190.5119)" fill="#F0EFEF" width="492.606" height="0.394"/>
		
			<rect x="-1829.407" y="-770.8" transform="matrix(-0.7071 0.7071 -0.7071 -0.7071 -3247.4265 -196.0824)" fill="#F0EFEF" width="492.607" height="0.394"/>
		
			<rect x="-1821.531" y="-770.8" transform="matrix(-0.7071 0.7071 -0.7071 -0.7071 -3233.9822 -201.6485)" fill="#F0EFEF" width="492.606" height="0.394"/>
		
			<rect x="-1813.656" y="-770.8" transform="matrix(-0.7071 0.7071 -0.7071 -0.7071 -3220.5388 -207.217)" fill="#F0EFEF" width="492.606" height="0.394"/>
		
			<rect x="-1805.781" y="-770.8" transform="matrix(-0.7071 0.7071 -0.7071 -0.7071 -3207.0952 -212.7855)" fill="#F0EFEF" width="492.606" height="0.394"/>
		
			<rect x="-1797.906" y="-770.8" transform="matrix(-0.7071 0.7071 -0.7071 -0.7071 -3193.6519 -218.3512)" fill="#F0EFEF" width="492.605" height="0.394"/>
		
			<rect x="-1790.032" y="-770.8" transform="matrix(-0.7071 0.7071 -0.7071 -0.7071 -3180.21 -223.9217)" fill="#F0EFEF" width="492.606" height="0.394"/>
		
			<rect x="-1782.157" y="-770.8" transform="matrix(-0.7071 0.7071 -0.7071 -0.7071 -3166.7666 -229.4902)" fill="#F0EFEF" width="492.606" height="0.394"/>
		
			<rect x="-1774.283" y="-770.8" transform="matrix(-0.7071 0.7071 -0.7071 -0.7071 -3153.3237 -235.0583)" fill="#F0EFEF" width="492.606" height="0.394"/>
		
			<rect x="-1766.408" y="-770.8" transform="matrix(-0.7071 0.7071 -0.7071 -0.7071 -3139.8811 -240.6264)" fill="#F0EFEF" width="492.606" height="0.394"/>
		
			<rect x="-1758.533" y="-770.8" transform="matrix(-0.7071 0.7071 -0.7071 -0.7071 -3126.4377 -246.1948)" fill="#F0EFEF" width="492.606" height="0.394"/>
		
			<rect x="-1750.658" y="-770.8" transform="matrix(-0.7071 0.7071 -0.7071 -0.7071 -3112.9944 -251.7633)" fill="#F0EFEF" width="492.606" height="0.394"/>
		
			<rect x="-1742.783" y="-770.8" transform="matrix(-0.7071 0.7071 -0.7071 -0.7071 -3099.55 -257.3295)" fill="#F0EFEF" width="492.605" height="0.393"/>
		
			<rect x="-1734.909" y="-770.8" transform="matrix(-0.7071 0.7071 -0.7071 -0.7071 -3086.1089 -262.8995)" fill="#F0EFEF" width="492.606" height="0.394"/>
		
			<rect x="-1727.034" y="-770.8" transform="matrix(-0.7071 0.7071 -0.7071 -0.7071 -3072.6655 -268.468)" fill="#F0EFEF" width="492.606" height="0.394"/>
		
			<rect x="-1719.159" y="-770.8" transform="matrix(-0.7071 0.7071 -0.7071 -0.7071 -3059.2222 -274.0365)" fill="#F0EFEF" width="492.606" height="0.394"/>
		
			<rect x="-1711.286" y="-770.8" transform="matrix(-0.7071 0.7071 -0.7071 -0.7071 -3045.781 -279.6065)" fill="#F0EFEF" width="492.607" height="0.394"/>
		
			<rect x="-1703.41" y="-770.8" transform="matrix(-0.7071 0.7071 -0.7071 -0.7071 -3032.3367 -285.1727)" fill="#F0EFEF" width="492.606" height="0.394"/>
		
			<rect x="-1695.535" y="-770.8" transform="matrix(-0.7071 0.7071 -0.7071 -0.7071 -3018.8933 -290.7411)" fill="#F0EFEF" width="492.606" height="0.394"/>
		
			<rect x="-1687.66" y="-770.8" transform="matrix(-0.7071 0.7071 -0.7071 -0.7071 -3005.45 -296.3096)" fill="#F0EFEF" width="492.606" height="0.394"/>
		
			<rect x="-1679.785" y="-770.8" transform="matrix(-0.7071 0.7071 -0.7071 -0.7071 -2992.0066 -301.8755)" fill="#F0EFEF" width="492.605" height="0.394"/>
		
			<rect x="-1671.911" y="-770.8" transform="matrix(-0.7071 0.7071 -0.7071 -0.7071 -2978.5645 -307.4459)" fill="#F0EFEF" width="492.606" height="0.394"/>
		
			<rect x="-1664.036" y="-770.8" transform="matrix(-0.7071 0.7071 -0.7071 -0.7071 -2965.1211 -313.0143)" fill="#F0EFEF" width="492.606" height="0.394"/>
		
			<rect x="-1656.162" y="-770.8" transform="matrix(-0.7071 0.7071 -0.7071 -0.7071 -2951.6785 -318.5824)" fill="#F0EFEF" width="492.606" height="0.394"/>
		
			<rect x="-1648.287" y="-770.8" transform="matrix(-0.7071 0.7071 -0.7071 -0.7071 -2938.2363 -324.1524)" fill="#F0EFEF" width="492.607" height="0.394"/>
		
			<rect x="-1640.412" y="-770.8" transform="matrix(-0.7071 0.7071 -0.7071 -0.7071 -2924.7925 -329.719)" fill="#F0EFEF" width="492.606" height="0.394"/>
		
			<rect x="-1632.537" y="-770.8" transform="matrix(-0.7071 0.7071 -0.7071 -0.7071 -2911.3489 -335.2875)" fill="#F0EFEF" width="492.606" height="0.394"/>
		
			<rect x="-1624.662" y="-770.8" transform="matrix(-0.7071 0.7071 -0.7071 -0.7071 -2897.9048 -340.8538)" fill="#F0EFEF" width="492.605" height="0.393"/>
		
			<rect x="-1616.787" y="-770.8" transform="matrix(-0.7071 0.7071 -0.7071 -0.7071 -2884.4622 -346.4219)" fill="#F0EFEF" width="492.605" height="0.394"/>
		
			<rect x="-1608.913" y="-770.8" transform="matrix(-0.7071 0.7071 -0.7071 -0.7071 -2871.0203 -351.9922)" fill="#F0EFEF" width="492.606" height="0.394"/>
		
			<rect x="-1601.038" y="-770.8" transform="matrix(-0.7071 0.7071 -0.7071 -0.7071 -2857.5767 -357.5606)" fill="#F0EFEF" width="492.606" height="0.394"/>
		
			<rect x="-1593.164" y="-770.8" transform="matrix(-0.7071 0.7071 -0.7071 -0.7071 -2844.1355 -363.1306)" fill="#F0EFEF" width="492.607" height="0.394"/>
		
			<rect x="-1585.289" y="-770.8" transform="matrix(-0.7071 0.7071 -0.7071 -0.7071 -2830.6914 -368.6969)" fill="#F0EFEF" width="492.606" height="0.394"/>
		
			<rect x="-1577.414" y="-770.8" transform="matrix(-0.7071 0.7071 -0.7071 -0.7071 -2817.248 -374.2653)" fill="#F0EFEF" width="492.606" height="0.394"/>
	</g>
	<g>
		
			<rect x="-1568.153" y="-770.8" transform="matrix(-0.7071 0.7071 -0.7071 -0.7071 -2801.439 -380.8136)" fill="#F0EFEF" width="492.606" height="0.394"/>
		
			<rect x="-1560.278" y="-770.8" transform="matrix(-0.7071 0.7071 -0.7071 -0.7071 -2787.9956 -386.3821)" fill="#F0EFEF" width="492.606" height="0.394"/>
		
			<rect x="-1552.405" y="-770.8" transform="matrix(-0.7071 0.7071 -0.7071 -0.7071 -2774.554 -391.9516)" fill="#F0EFEF" width="492.607" height="0.394"/>
		
			<rect x="-1544.529" y="-770.8" transform="matrix(-0.7071 0.7071 -0.7071 -0.7071 -2761.1101 -397.5183)" fill="#F0EFEF" width="492.606" height="0.394"/>
		
			<rect x="-1536.654" y="-770.8" transform="matrix(-0.7071 0.7071 -0.7071 -0.7071 -2747.6667 -403.0868)" fill="#F0EFEF" width="492.606" height="0.394"/>
		
			<rect x="-1528.779" y="-770.8" transform="matrix(-0.7071 0.7071 -0.7071 -0.7071 -2734.2231 -408.6553)" fill="#F0EFEF" width="492.606" height="0.394"/>
		
			<rect x="-1520.904" y="-770.8" transform="matrix(-0.7071 0.7071 -0.7071 -0.7071 -2720.7793 -414.2217)" fill="#F0EFEF" width="492.605" height="0.393"/>
		
			<rect x="-1513.03" y="-770.8" transform="matrix(-0.7071 0.7071 -0.7071 -0.7071 -2707.3379 -419.7915)" fill="#F0EFEF" width="492.606" height="0.394"/>
		
			<rect x="-1505.155" y="-770.8" transform="matrix(-0.7071 0.7071 -0.7071 -0.7071 -2693.8945 -425.36)" fill="#F0EFEF" width="492.606" height="0.394"/>
		
			<rect x="-1497.281" y="-770.8" transform="matrix(-0.7071 0.7071 -0.7071 -0.7071 -2680.4519 -430.9281)" fill="#F0EFEF" width="492.606" height="0.394"/>
		
			<rect x="-1489.407" y="-770.8" transform="matrix(-0.7071 0.7071 -0.7071 -0.7071 -2667.0095 -436.4982)" fill="#F0EFEF" width="492.607" height="0.394"/>
		
			<rect x="-1481.531" y="-770.8" transform="matrix(-0.7071 0.7071 -0.7071 -0.7071 -2653.5657 -442.0647)" fill="#F0EFEF" width="492.606" height="0.394"/>
		
			<rect x="-1473.656" y="-770.8" transform="matrix(-0.7071 0.7071 -0.7071 -0.7071 -2640.1223 -447.6331)" fill="#F0EFEF" width="492.606" height="0.394"/>
		
			<rect x="-1465.781" y="-770.8" transform="matrix(-0.7071 0.7071 -0.7071 -0.7071 -2626.6787 -453.2016)" fill="#F0EFEF" width="492.606" height="0.394"/>
		
			<rect x="-1457.906" y="-770.8" transform="matrix(-0.7071 0.7071 -0.7071 -0.7071 -2613.2358 -458.7677)" fill="#F0EFEF" width="492.605" height="0.394"/>
		
			<rect x="-1450.032" y="-770.8" transform="matrix(-0.7071 0.7071 -0.7071 -0.7071 -2599.7937 -464.3378)" fill="#F0EFEF" width="492.606" height="0.394"/>
		
			<rect x="-1442.157" y="-770.8" transform="matrix(-0.7071 0.7071 -0.7071 -0.7071 -2586.3501 -469.9062)" fill="#F0EFEF" width="492.606" height="0.394"/>
		
			<rect x="-1434.283" y="-770.8" transform="matrix(-0.7071 0.7071 -0.7071 -0.7071 -2572.9075 -475.4744)" fill="#F0EFEF" width="492.606" height="0.394"/>
		
			<rect x="-1426.408" y="-770.8" transform="matrix(-0.7071 0.7071 -0.7071 -0.7071 -2559.4648 -481.0425)" fill="#F0EFEF" width="492.606" height="0.394"/>
		
			<rect x="-1418.533" y="-770.8" transform="matrix(-0.7071 0.7071 -0.7071 -0.7071 -2546.0212 -486.611)" fill="#F0EFEF" width="492.606" height="0.394"/>
		
			<rect x="-1410.658" y="-770.8" transform="matrix(-0.7071 0.7071 -0.7071 -0.7071 -2532.5779 -492.1794)" fill="#F0EFEF" width="492.606" height="0.394"/>
		
			<rect x="-1402.783" y="-770.8" transform="matrix(-0.7071 0.7071 -0.7071 -0.7071 -2519.134 -497.7459)" fill="#F0EFEF" width="492.605" height="0.393"/>
		
			<rect x="-1394.909" y="-770.8" transform="matrix(-0.7071 0.7071 -0.7071 -0.7071 -2505.6926 -503.3157)" fill="#F0EFEF" width="492.606" height="0.394"/>
		
			<rect x="-1387.034" y="-770.8" transform="matrix(-0.7071 0.7071 -0.7071 -0.7071 -2492.249 -508.8841)" fill="#F0EFEF" width="492.606" height="0.394"/>
		
			<rect x="-1379.159" y="-770.8" transform="matrix(-0.7071 0.7071 -0.7071 -0.7071 -2478.8057 -514.4526)" fill="#F0EFEF" width="492.606" height="0.394"/>
		
			<rect x="-1371.286" y="-770.8" transform="matrix(-0.7071 0.7071 -0.7071 -0.7071 -2465.3643 -520.0223)" fill="#F0EFEF" width="492.607" height="0.394"/>
		
			<rect x="-1363.41" y="-770.8" transform="matrix(-0.7071 0.7071 -0.7071 -0.7071 -2451.9204 -525.5888)" fill="#F0EFEF" width="492.606" height="0.394"/>
		
			<rect x="-1355.535" y="-770.8" transform="matrix(-0.7071 0.7071 -0.7071 -0.7071 -2438.4768 -531.1573)" fill="#F0EFEF" width="492.606" height="0.394"/>
		
			<rect x="-1347.66" y="-770.8" transform="matrix(-0.7071 0.7071 -0.7071 -0.7071 -2425.0334 -536.7258)" fill="#F0EFEF" width="492.606" height="0.394"/>
		
			<rect x="-1339.785" y="-770.8" transform="matrix(-0.7071 0.7071 -0.7071 -0.7071 -2411.5903 -542.292)" fill="#F0EFEF" width="492.605" height="0.394"/>
		
			<rect x="-1331.911" y="-770.8" transform="matrix(-0.7071 0.7071 -0.7071 -0.7071 -2398.1482 -547.862)" fill="#F0EFEF" width="492.606" height="0.394"/>
		
			<rect x="-1324.036" y="-770.8" transform="matrix(-0.7071 0.7071 -0.7071 -0.7071 -2384.7046 -553.4304)" fill="#F0EFEF" width="492.606" height="0.394"/>
		
			<rect x="-1316.162" y="-770.8" transform="matrix(-0.7071 0.7071 -0.7071 -0.7071 -2371.2622 -558.9985)" fill="#F0EFEF" width="492.606" height="0.394"/>
		
			<rect x="-1308.287" y="-770.8" transform="matrix(-0.7071 0.7071 -0.7071 -0.7071 -2357.8196 -564.5685)" fill="#F0EFEF" width="492.607" height="0.394"/>
		
			<rect x="-1300.412" y="-770.8" transform="matrix(-0.7071 0.7071 -0.7071 -0.7071 -2344.376 -570.1351)" fill="#F0EFEF" width="492.606" height="0.394"/>
		
			<rect x="-1292.537" y="-770.8" transform="matrix(-0.7071 0.7071 -0.7071 -0.7071 -2330.9324 -575.7036)" fill="#F0EFEF" width="492.606" height="0.394"/>
		
			<rect x="-1284.662" y="-770.8" transform="matrix(-0.7071 0.7071 -0.7071 -0.7071 -2317.4888 -581.2703)" fill="#F0EFEF" width="492.605" height="0.393"/>
		
			<rect x="-1276.787" y="-770.8" transform="matrix(-0.7071 0.7071 -0.7071 -0.7071 -2304.0459 -586.8384)" fill="#F0EFEF" width="492.605" height="0.394"/>
		
			<rect x="-1268.913" y="-770.8" transform="matrix(-0.7071 0.7071 -0.7071 -0.7071 -2290.6038 -592.4083)" fill="#F0EFEF" width="492.606" height="0.394"/>
		
			<rect x="-1261.038" y="-770.8" transform="matrix(-0.7071 0.7071 -0.7071 -0.7071 -2277.1602 -597.9767)" fill="#F0EFEF" width="492.606" height="0.394"/>
		
			<rect x="-1253.164" y="-770.8" transform="matrix(-0.7071 0.7071 -0.7071 -0.7071 -2263.7188 -603.5463)" fill="#F0EFEF" width="492.607" height="0.394"/>
		
			<rect x="-1245.289" y="-770.8" transform="matrix(-0.7071 0.7071 -0.7071 -0.7071 -2250.2749 -609.113)" fill="#F0EFEF" width="492.606" height="0.394"/>
		
			<rect x="-1237.414" y="-770.8" transform="matrix(-0.7071 0.7071 -0.7071 -0.7071 -2236.8315 -614.6815)" fill="#F0EFEF" width="492.606" height="0.394"/>
	</g>
	<g>
		
			<rect x="-1228.153" y="-770.8" transform="matrix(-0.7071 0.7071 -0.7071 -0.7071 -2221.0225 -621.2297)" fill="#F0EFEF" width="492.606" height="0.394"/>
		
			<rect x="-1220.278" y="-770.8" transform="matrix(-0.7071 0.7071 -0.7071 -0.7071 -2207.5791 -626.7982)" fill="#F0EFEF" width="492.606" height="0.394"/>
		
			<rect x="-1212.405" y="-770.8" transform="matrix(-0.7071 0.7071 -0.7071 -0.7071 -2194.1372 -632.3678)" fill="#F0EFEF" width="492.607" height="0.394"/>
		
			<rect x="-1204.529" y="-770.8" transform="matrix(-0.7071 0.7071 -0.7071 -0.7071 -2180.6936 -637.9345)" fill="#F0EFEF" width="492.606" height="0.394"/>
		
			<rect x="-1196.654" y="-770.8" transform="matrix(-0.7071 0.7071 -0.7071 -0.7071 -2167.2502 -643.5029)" fill="#F0EFEF" width="492.606" height="0.394"/>
		
			<rect x="-1188.779" y="-770.8" transform="matrix(-0.7071 0.7071 -0.7071 -0.7071 -2153.8066 -649.0714)" fill="#F0EFEF" width="492.606" height="0.394"/>
		
			<rect x="-1180.904" y="-770.8" transform="matrix(-0.7071 0.7071 -0.7071 -0.7071 -2140.363 -654.6381)" fill="#F0EFEF" width="492.605" height="0.393"/>
		
			<rect x="-1173.03" y="-770.8" transform="matrix(-0.7071 0.7071 -0.7071 -0.7071 -2126.9214 -660.2076)" fill="#F0EFEF" width="492.606" height="0.394"/>
		
			<rect x="-1165.155" y="-770.8" transform="matrix(-0.7071 0.7071 -0.7071 -0.7071 -2113.478 -665.7761)" fill="#F0EFEF" width="492.606" height="0.394"/>
		
			<rect x="-1157.281" y="-770.8" transform="matrix(-0.7071 0.7071 -0.7071 -0.7071 -2100.0354 -671.3442)" fill="#F0EFEF" width="492.606" height="0.394"/>
		
			<rect x="-1149.407" y="-770.8" transform="matrix(-0.7071 0.7071 -0.7071 -0.7071 -2086.5928 -676.914)" fill="#F0EFEF" width="492.607" height="0.394"/>
		
			<rect x="-1141.531" y="-770.8" transform="matrix(-0.7071 0.7071 -0.7071 -0.7071 -2073.1492 -682.4808)" fill="#F0EFEF" width="492.606" height="0.394"/>
		
			<rect x="-1133.656" y="-770.8" transform="matrix(-0.7071 0.7071 -0.7071 -0.7071 -2059.7058 -688.0493)" fill="#F0EFEF" width="492.606" height="0.394"/>
		
			<rect x="-1125.781" y="-770.8" transform="matrix(-0.7071 0.7071 -0.7071 -0.7071 -2046.2623 -693.6177)" fill="#F0EFEF" width="492.606" height="0.394"/>
		
			<rect x="-1117.906" y="-770.8" transform="matrix(-0.7071 0.7071 -0.7071 -0.7071 -2032.8196 -699.1842)" fill="#F0EFEF" width="492.605" height="0.394"/>
		
			<rect x="-1110.032" y="-770.8" transform="matrix(-0.7071 0.7071 -0.7071 -0.7071 -2019.3771 -704.7539)" fill="#F0EFEF" width="492.606" height="0.394"/>
		
			<rect x="-1102.157" y="-770.8" transform="matrix(-0.7071 0.7071 -0.7071 -0.7071 -2005.9336 -710.3224)" fill="#F0EFEF" width="492.606" height="0.394"/>
		
			<rect x="-1094.283" y="-770.8" transform="matrix(-0.7071 0.7071 -0.7071 -0.7071 -1992.491 -715.8905)" fill="#F0EFEF" width="492.606" height="0.394"/>
		
			<rect x="-1086.408" y="-770.8" transform="matrix(-0.7071 0.7071 -0.7071 -0.7071 -1979.0482 -721.4586)" fill="#F0EFEF" width="492.606" height="0.394"/>
		
			<rect x="-1078.533" y="-770.8" transform="matrix(-0.7071 0.7071 -0.7071 -0.7071 -1965.6047 -727.0271)" fill="#F0EFEF" width="492.606" height="0.394"/>
		
			<rect x="-1070.658" y="-770.8" transform="matrix(-0.7071 0.7071 -0.7071 -0.7071 -1952.1613 -732.5956)" fill="#F0EFEF" width="492.606" height="0.394"/>
		
			<rect x="-1062.783" y="-770.8" transform="matrix(-0.7071 0.7071 -0.7071 -0.7071 -1938.7178 -738.1624)" fill="#F0EFEF" width="492.605" height="0.393"/>
		
			<rect x="-1054.909" y="-770.8" transform="matrix(-0.7071 0.7071 -0.7071 -0.7071 -1925.276 -743.7318)" fill="#F0EFEF" width="492.606" height="0.394"/>
		
			<rect x="-1047.034" y="-770.8" transform="matrix(-0.7071 0.7071 -0.7071 -0.7071 -1911.8325 -749.3003)" fill="#F0EFEF" width="492.606" height="0.394"/>
		
			<rect x="-1039.159" y="-770.8" transform="matrix(-0.7071 0.7071 -0.7071 -0.7071 -1898.3892 -754.8687)" fill="#F0EFEF" width="492.606" height="0.394"/>
		
			<rect x="-1031.286" y="-770.8" transform="matrix(-0.7071 0.7071 -0.7071 -0.7071 -1884.9473 -760.438)" fill="#F0EFEF" width="492.607" height="0.394"/>
		
			<rect x="-1023.41" y="-770.8" transform="matrix(-0.7071 0.7071 -0.7071 -0.7071 -1871.5038 -766.0049)" fill="#F0EFEF" width="492.606" height="0.394"/>
		
			<rect x="-1015.535" y="-770.8" transform="matrix(-0.7071 0.7071 -0.7071 -0.7071 -1858.0603 -771.5734)" fill="#F0EFEF" width="492.606" height="0.394"/>
		
			<rect x="-1007.66" y="-770.8" transform="matrix(-0.7071 0.7071 -0.7071 -0.7071 -1844.6169 -777.1419)" fill="#F0EFEF" width="492.606" height="0.394"/>
		
			<rect x="-999.785" y="-770.8" transform="matrix(-0.7071 0.7071 -0.7071 -0.7071 -1831.1743 -782.7084)" fill="#F0EFEF" width="492.605" height="0.394"/>
		
			<rect x="-991.911" y="-770.8" transform="matrix(-0.7071 0.7071 -0.7071 -0.7071 -1817.7317 -788.2781)" fill="#F0EFEF" width="492.606" height="0.394"/>
		
			<rect x="-984.036" y="-770.8" transform="matrix(-0.7071 0.7071 -0.7071 -0.7071 -1804.2882 -793.8466)" fill="#F0EFEF" width="492.606" height="0.394"/>
		
			<rect x="-976.162" y="-770.8" transform="matrix(-0.7071 0.7071 -0.7071 -0.7071 -1790.8456 -799.4147)" fill="#F0EFEF" width="492.606" height="0.394"/>
		
			<rect x="-968.287" y="-770.8" transform="matrix(-0.7071 0.7071 -0.7071 -0.7071 -1777.4028 -804.9841)" fill="#F0EFEF" width="492.607" height="0.394"/>
		
			<rect x="-960.412" y="-770.8" transform="matrix(-0.7071 0.7071 -0.7071 -0.7071 -1763.9594 -810.5513)" fill="#F0EFEF" width="492.606" height="0.394"/>
		
			<rect x="-952.537" y="-770.8" transform="matrix(-0.7071 0.7071 -0.7071 -0.7071 -1750.516 -816.1198)" fill="#F0EFEF" width="492.606" height="0.394"/>
		
			<rect x="-944.662" y="-770.8" transform="matrix(-0.7071 0.7071 -0.7071 -0.7071 -1737.0725 -821.6867)" fill="#F0EFEF" width="492.605" height="0.393"/>
		
			<rect x="-936.787" y="-770.8" transform="matrix(-0.7071 0.7071 -0.7071 -0.7071 -1723.6299 -827.2549)" fill="#F0EFEF" width="492.605" height="0.394"/>
		
			<rect x="-928.913" y="-770.8" transform="matrix(-0.7071 0.7071 -0.7071 -0.7071 -1710.1871 -832.8245)" fill="#F0EFEF" width="492.606" height="0.394"/>
		
			<rect x="-921.038" y="-770.8" transform="matrix(-0.7071 0.7071 -0.7071 -0.7071 -1696.7437 -838.3929)" fill="#F0EFEF" width="492.606" height="0.394"/>
		
			<rect x="-913.164" y="-770.8" transform="matrix(-0.7071 0.7071 -0.7071 -0.7071 -1683.3018 -843.9621)" fill="#F0EFEF" width="492.607" height="0.394"/>
		
			<rect x="-905.289" y="-770.8" transform="matrix(-0.7071 0.7071 -0.7071 -0.7071 -1669.8584 -849.5291)" fill="#F0EFEF" width="492.606" height="0.394"/>
		
			<rect x="-897.414" y="-770.8" transform="matrix(-0.7071 0.7071 -0.7071 -0.7071 -1656.415 -855.0976)" fill="#F0EFEF" width="492.606" height="0.394"/>
	</g>
	<g>
		
			<rect x="-888.153" y="-770.8" transform="matrix(-0.7071 0.7071 -0.7071 -0.7071 -1640.606 -861.6459)" fill="#F0EFEF" width="492.606" height="0.394"/>
		
			<rect x="-880.278" y="-770.8" transform="matrix(-0.7071 0.7071 -0.7071 -0.7071 -1627.1625 -867.2144)" fill="#F0EFEF" width="492.606" height="0.394"/>
		
			<rect x="-872.405" y="-770.8" transform="matrix(-0.7071 0.7071 -0.7071 -0.7071 -1613.7205 -872.7833)" fill="#F0EFEF" width="492.607" height="0.394"/>
		
			<rect x="-864.529" y="-770.8" transform="matrix(-0.7071 0.7071 -0.7071 -0.7071 -1600.2771 -878.3506)" fill="#F0EFEF" width="492.606" height="0.394"/>
		
			<rect x="-856.654" y="-770.8" transform="matrix(-0.7071 0.7071 -0.7071 -0.7071 -1586.8337 -883.9191)" fill="#F0EFEF" width="492.606" height="0.394"/>
		
			<rect x="-848.779" y="-770.8" transform="matrix(-0.7071 0.7071 -0.7071 -0.7071 -1573.3903 -889.4875)" fill="#F0EFEF" width="492.606" height="0.394"/>
		
			<rect x="-840.904" y="-770.8" transform="matrix(-0.7071 0.7071 -0.7071 -0.7071 -1559.9469 -895.0546)" fill="#F0EFEF" width="492.605" height="0.393"/>
		
			<rect x="-833.03" y="-770.8" transform="matrix(-0.7071 0.7071 -0.7071 -0.7071 -1546.5049 -900.6238)" fill="#F0EFEF" width="492.606" height="0.394"/>
		
			<rect x="-825.155" y="-770.8" transform="matrix(-0.7071 0.7071 -0.7071 -0.7071 -1533.0614 -906.1923)" fill="#F0EFEF" width="492.606" height="0.394"/>
		
			<rect x="-817.281" y="-770.8" transform="matrix(-0.7071 0.7071 -0.7071 -0.7071 -1519.6189 -911.7604)" fill="#F0EFEF" width="492.606" height="0.394"/>
		
			<rect x="-809.407" y="-770.8" transform="matrix(-0.7071 0.7071 -0.7071 -0.7071 -1506.176 -917.3298)" fill="#F0EFEF" width="492.607" height="0.394"/>
		
			<rect x="-801.531" y="-770.8" transform="matrix(-0.7071 0.7071 -0.7071 -0.7071 -1492.7328 -922.8969)" fill="#F0EFEF" width="492.606" height="0.394"/>
		
			<rect x="-793.656" y="-770.8" transform="matrix(-0.7071 0.7071 -0.7071 -0.7071 -1479.2893 -928.4654)" fill="#F0EFEF" width="492.606" height="0.394"/>
		
			<rect x="-785.781" y="-770.8" transform="matrix(-0.7071 0.7071 -0.7071 -0.7071 -1465.8458 -934.0339)" fill="#F0EFEF" width="492.606" height="0.394"/>
		
			<rect x="-777.906" y="-770.8" transform="matrix(-0.7071 0.7071 -0.7071 -0.7071 -1452.4034 -939.6006)" fill="#F0EFEF" width="492.605" height="0.394"/>
		
			<rect x="-770.032" y="-770.8" transform="matrix(-0.7071 0.7071 -0.7071 -0.7071 -1438.9606 -945.17)" fill="#F0EFEF" width="492.606" height="0.394"/>
		
			<rect x="-762.157" y="-770.8" transform="matrix(-0.7071 0.7071 -0.7071 -0.7071 -1425.5171 -950.7385)" fill="#F0EFEF" width="492.606" height="0.394"/>
		
			<rect x="-754.283" y="-770.8" transform="matrix(-0.7071 0.7071 -0.7071 -0.7071 -1412.0745 -956.3066)" fill="#F0EFEF" width="492.606" height="0.394"/>
		
			<rect x="-746.408" y="-770.8" transform="matrix(-0.7071 0.7071 -0.7071 -0.7071 -1398.6318 -961.8748)" fill="#F0EFEF" width="492.606" height="0.394"/>
		
			<rect x="-738.533" y="-770.8" transform="matrix(-0.7071 0.7071 -0.7071 -0.7071 -1385.1884 -967.4432)" fill="#F0EFEF" width="492.606" height="0.394"/>
		
			<rect x="-730.658" y="-770.8" transform="matrix(-0.7071 0.7071 -0.7071 -0.7071 -1371.7449 -973.0117)" fill="#F0EFEF" width="492.606" height="0.394"/>
		
			<rect x="-722.783" y="-770.8" transform="matrix(-0.7071 0.7071 -0.7071 -0.7071 -1358.3016 -978.5789)" fill="#F0EFEF" width="492.605" height="0.393"/>
		
			<rect x="-714.909" y="-770.8" transform="matrix(-0.7071 0.7071 -0.7071 -0.7071 -1344.8595 -984.1479)" fill="#F0EFEF" width="492.606" height="0.394"/>
		
			<rect x="-707.034" y="-770.8" transform="matrix(-0.7071 0.7071 -0.7071 -0.7071 -1331.416 -989.7164)" fill="#F0EFEF" width="492.606" height="0.394"/>
		
			<rect x="-699.159" y="-770.8" transform="matrix(-0.7071 0.7071 -0.7071 -0.7071 -1317.9725 -995.2849)" fill="#F0EFEF" width="492.606" height="0.394"/>
		
			<rect x="-691.286" y="-770.8" transform="matrix(-0.7071 0.7071 -0.7071 -0.7071 -1304.5305 -1000.8539)" fill="#F0EFEF" width="492.607" height="0.394"/>
		
			<rect x="-683.41" y="-770.8" transform="matrix(-0.7071 0.7071 -0.7071 -0.7071 -1291.0874 -1006.4211)" fill="#F0EFEF" width="492.606" height="0.394"/>
		
			<rect x="-675.535" y="-770.8" transform="matrix(-0.7071 0.7071 -0.7071 -0.7071 -1277.6439 -1011.9896)" fill="#F0EFEF" width="492.606" height="0.394"/>
		
			<rect x="-667.66" y="-770.8" transform="matrix(-0.7071 0.7071 -0.7071 -0.7071 -1264.2004 -1017.558)" fill="#F0EFEF" width="492.606" height="0.394"/>
		
			<rect x="-659.785" y="-770.8" transform="matrix(-0.7071 0.7071 -0.7071 -0.7071 -1250.7582 -1023.1249)" fill="#F0EFEF" width="492.605" height="0.394"/>
		
			<rect x="-651.911" y="-770.8" transform="matrix(-0.7071 0.7071 -0.7071 -0.7071 -1237.3152 -1028.6942)" fill="#F0EFEF" width="492.606" height="0.394"/>
		
			<rect x="-644.036" y="-770.8" transform="matrix(-0.7071 0.7071 -0.7071 -0.7071 -1223.8717 -1034.2627)" fill="#F0EFEF" width="492.606" height="0.394"/>
		
			<rect x="-636.162" y="-770.8" transform="matrix(-0.7071 0.7071 -0.7071 -0.7071 -1210.4291 -1039.8308)" fill="#F0EFEF" width="492.606" height="0.394"/>
		
			<rect x="-628.287" y="-770.8" transform="matrix(-0.7071 0.7071 -0.7071 -0.7071 -1196.9861 -1045.3999)" fill="#F0EFEF" width="492.607" height="0.394"/>
		
			<rect x="-620.412" y="-770.8" transform="matrix(-0.7071 0.7071 -0.7071 -0.7071 -1183.543 -1050.9674)" fill="#F0EFEF" width="492.606" height="0.394"/>
		
			<rect x="-612.537" y="-770.8" transform="matrix(-0.7071 0.7071 -0.7071 -0.7071 -1170.0995 -1056.5359)" fill="#F0EFEF" width="492.606" height="0.394"/>
		
			<rect x="-604.662" y="-770.8" transform="matrix(-0.7071 0.7071 -0.7071 -0.7071 -1156.6564 -1062.1031)" fill="#F0EFEF" width="492.605" height="0.393"/>
		
			<rect x="-596.787" y="-770.8" transform="matrix(-0.7071 0.7071 -0.7071 -0.7071 -1143.2137 -1067.6714)" fill="#F0EFEF" width="492.605" height="0.394"/>
		
			<rect x="-588.913" y="-770.8" transform="matrix(-0.7071 0.7071 -0.7071 -0.7071 -1129.7706 -1073.2406)" fill="#F0EFEF" width="492.606" height="0.394"/>
		
			<rect x="-581.038" y="-770.8" transform="matrix(-0.7071 0.7071 -0.7071 -0.7071 -1116.3271 -1078.8091)" fill="#F0EFEF" width="492.606" height="0.394"/>
		
			<rect x="-573.164" y="-770.8" transform="matrix(-0.7071 0.7071 -0.7071 -0.7071 -1102.885 -1084.3779)" fill="#F0EFEF" width="492.607" height="0.394"/>
		
			<rect x="-565.289" y="-770.8" transform="matrix(-0.7071 0.7071 -0.7071 -0.7071 -1089.4419 -1089.9453)" fill="#F0EFEF" width="492.606" height="0.394"/>
		
			<rect x="-557.414" y="-770.8" transform="matrix(-0.7071 0.7071 -0.7071 -0.7071 -1075.9985 -1095.5137)" fill="#F0EFEF" width="492.606" height="0.394"/>
	</g>
	<rect x="-1932.089" y="-823.058" fill="none" width="1280" height="121"/>
</g>
<g opacity="0.7">
	<polygon fill="#FAFAFA" points="20.139,14.599 20.139,21.52 2.23,21.52 2.23,14.599 0,14.599 0,23.749 0.062,23.749 2.23,23.749 
		20.139,23.749 22.37,23.749 22.37,21.52 22.37,14.599 	"/>
	<polygon fill="#FAFAFA" points="11.281,0 2.216,11.2 6.276,11.2 6.276,20.507 16.285,20.507 16.285,11.2 20.348,11.2 	"/>
</g>
</svg>
